<?xml version="1.0" standalone="no"?>
<!DOCTYPE svg PUBLIC "-//W3C//DTD SVG 1.1//EN" "http://www.w3.org/Graphics/SVG/1.1/DTD/svg11.dtd" >
<svg xmlns="http://www.w3.org/2000/svg">
<metadata>Generated by IcoMoon</metadata>
<defs>
<font id="icomoon" horiz-adv-x="1024">
<font-face units-per-em="1024" ascent="960" descent="-64" />
<missing-glyph horiz-adv-x="1024" />
<glyph unicode="&#x20;" horiz-adv-x="512" d="" />
<glyph unicode="&#xe20;" glyph-name="moreDot" d="M512 903.68c-251.665 0-455.68-204.015-455.68-455.68s204.015-455.68 455.68-455.68c251.665 0 455.68 204.015 455.68 455.68v0c-0.291 251.548-204.132 455.389-455.653 455.68h-0.027zM512 53.76c-217.733 0-394.24 176.507-394.24 394.24s176.507 394.24 394.24 394.24c217.733 0 394.24-176.507 394.24-394.24v0c-0.233-217.639-176.601-394.007-394.217-394.24h-0.023zM569.651 448c0-31.84-25.811-57.651-57.651-57.651s-57.651 25.811-57.651 57.651c0 31.84 25.811 57.651 57.651 57.651s57.651-25.811 57.651-57.651zM755.2 448c0-31.84-25.811-57.651-57.651-57.651s-57.651 25.811-57.651 57.651c0 31.84 25.811 57.651 57.651 57.651s57.651-25.811 57.651-57.651zM384.102 448c0-31.84-25.811-57.651-57.651-57.651s-57.651 25.811-57.651 57.651c0 31.84 25.811 57.651 57.651 57.651s57.651-25.811 57.651-57.651z" />
<glyph unicode="&#xe201;" glyph-name="footer_cAccount" d="M512 923.859c-3.483 0.192-7.559 0.301-11.661 0.301-124.751 0-225.882-101.131-225.882-225.882s101.131-225.882 225.882-225.882c4.102 0 8.178 0.109 12.225 0.325l-0.565-0.024c119.632 6.375 214.222 104.931 214.222 225.581s-94.59 219.207-213.657 225.557l-0.565 0.024zM512 544.979c-84.498 0-152.998 68.499-152.998 152.998s68.499 152.998 152.998 152.998v0 0c84.498 0 152.998-68.499 152.998-152.998s-68.499-152.998-152.998-152.998v0zM512 444.988c-180.706 0-331.294-155.407-353.581-361.412v0c-0.096-1.441-0.151-3.123-0.151-4.819s0.055-3.378 0.162-5.046l-0.012 0.227c0.226-43.021 32.178-78.511 73.64-84.278l0.449-0.051c78.481-10.335 169.251-16.244 261.397-16.264h24.118c9.347-0.168 20.371-0.263 31.417-0.263 85.983 0 170.614 5.787 253.525 16.993l-9.666-1.069c41.986 6.097 73.904 41.759 74.089 84.912v0.019c0.074 1.349 0.116 2.929 0.116 4.518s-0.042 3.168-0.125 4.737l0.009-0.219c-24.094 206.005-175.887 362.014-355.388 362.014zM792.094 56.471c-76.017-10.736-163.827-16.866-253.069-16.866-0.183 0-0.365 0-0.548 0h-21.659c-6.052-0.068-13.203-0.107-20.363-0.107-90.101 0-178.761 6.169-265.582 18.106l10.067-1.133c-9.558 1.238-16.866 9.328-16.866 19.124 0 0.053 0 0.106 0.001 0.159v-0.008c18.673 172.273 142.155 301.176 287.322 301.176s268.649-130.108 287.322-301.176v0c0-0.045 0.001-0.098 0.001-0.151 0-6.337-3.058-11.961-7.78-15.474l-0.051-0.037zM151.793 83.576v0 0zM230.701-17.016v0h-10.24z" />
<glyph unicode="&#xe202;" glyph-name="footer_cAccountActive" d="M512 472.824c-214.306-1.406-387.531-175.286-387.879-389.707v-0.033c0.017-34.886 4.773-68.653 13.659-100.703l-0.626 2.648c5.587-19.443 23.181-33.441 44.055-33.513h664.056c0.047 0 0.102 0 0.158 0 21.052 0 38.751 14.359 43.836 33.818l0.070 0.315c7.647 29.176 12.159 62.721 12.411 97.278l0.001 0.157c-0.353 215.106-174.635 389.388-389.707 389.741h-0.034zM748.451 717.343c0-125.447-101.695-227.142-227.142-227.142s-227.142 101.695-227.142 227.142c0 125.447 101.695 227.142 227.142 227.142s227.142-101.695 227.142-227.142z" />
<glyph unicode="&#xe203;" glyph-name="footer_cBook" d="M795.617 825.949h-42.201v29.789c0 23.65-19.172 42.822-42.822 42.822s-42.822-19.172-42.822-42.822v0-29.789h-310.303v29.789c0 23.65-19.172 42.822-42.822 42.822s-42.822-19.172-42.822-42.822v0-29.789h-43.442c-117.422-0.352-212.516-95.446-212.868-212.834v-402.187c0.352-117.422 95.446-212.516 212.834-212.868h567.268c117.422 0.352 212.516 95.446 212.868 212.834v402.187c-0.352 117.422-95.446 212.516-212.834 212.868h-0.034zM923.462 210.928c0-70.607-57.238-127.845-127.845-127.845v0h-567.234c-70.607 0-127.845 57.238-127.845 127.845v402.153c0 70.607 57.238 127.845 127.845 127.845h42.201v-11.792c0-23.65 19.172-42.822 42.822-42.822s42.822 19.172 42.822 42.822v0 11.792h310.303v-11.792c0-23.65 19.172-42.822 42.822-42.822s42.822 19.172 42.822 42.822v0 11.792h42.201c70.607 0 127.845-57.238 127.845-127.845v0zM830.992 274.23c0-39.416-31.953-71.37-71.37-71.37s-71.37 31.953-71.37 71.37c0 39.416 31.953 71.37 71.37 71.37v0c39.416 0 71.37-31.953 71.37-71.37v0zM583.37 274.23c0-39.416-31.953-71.37-71.37-71.37s-71.37 31.953-71.37 71.37c0 39.416 31.953 71.37 71.37 71.37v0c39.416 0 71.37-31.953 71.37-71.37v0zM335.748 274.23c0-39.416-31.953-71.37-71.37-71.37s-71.37 31.953-71.37 71.37c0 39.416 31.953 71.37 71.37 71.37v0c39.416 0 71.37-31.953 71.37-71.37v0zM830.992 521.852c0-39.416-31.953-71.37-71.37-71.37s-71.37 31.953-71.37 71.37c0 39.416 31.953 71.37 71.37 71.37v0c39.416 0 71.37-31.953 71.37-71.37v0zM583.37 521.852c0-39.416-31.953-71.37-71.37-71.37s-71.37 31.953-71.37 71.37c0 39.416 31.953 71.37 71.37 71.37v0c39.416 0 71.37-31.953 71.37-71.37v0z" />
<glyph unicode="&#xe204;" glyph-name="footer_cBookActive" d="M782.584 826.57h-27.927v26.065c0 25.021-20.283 45.304-45.304 45.304s-45.304-20.283-45.304-45.304v0-26.065h-304.097v26.065c0 25.021-20.283 45.304-45.304 45.304s-45.304-20.283-45.304-45.304v0-26.065h-27.927c0 0-0.001 0-0.001 0-124.543 0-225.547-100.786-225.9-225.246v-377.983c0.353-124.494 101.356-225.28 225.9-225.28 0 0 0.001 0 0.001 0h541.169c0 0 0.001 0 0.001 0 124.543 0 225.547 100.786 225.9 225.246v377.983c-0.353 124.494-101.356 225.28-225.9 225.28 0 0-0.001 0-0.001 0v0zM758.381 205.964c-39.072 0.002-70.746 31.676-70.746 70.749s31.675 70.749 70.749 70.749c38.855 0 70.395-31.323 70.746-70.095v-0.033c0.002-0.185 0.003-0.404 0.003-0.623 0-39.199-31.602-71.017-70.719-71.367h-0.033zM758.381 454.206c-39.074 0-70.749 31.675-70.749 70.749s31.675 70.749 70.749 70.749c39.074 0 70.749-31.675 70.749-70.749v0c0.028-0.741 0.043-1.611 0.043-2.485 0-39.213-31.625-71.040-70.761-71.367h-0.031zM510.138 454.206c-38.235 1.076-68.82 32.327-68.82 70.723 0 39.074 31.675 70.749 70.749 70.749s70.749-31.675 70.749-70.749c0-1.082-0.024-2.159-0.072-3.229l0.005 0.152c-0.348-38.933-31.816-70.401-70.716-70.749h-0.033zM582.749 277.333c0.016-0.554 0.025-1.207 0.025-1.862 0-39.074-31.675-70.749-70.749-70.749s-70.749 31.675-70.749 70.749c0 39.065 31.661 70.735 70.723 70.749h0.001c38.297-0.32 69.382-30.754 70.746-68.762l0.004-0.125zM265.619 346.221c39.063-0.014 70.725-31.684 70.725-70.749 0-39.074-31.675-70.749-70.749-70.749s-70.749 31.675-70.749 70.749c0 0.655 0.009 1.307 0.027 1.958l-0.002-0.096c1.039 38.264 32.306 68.887 70.725 68.887 0.009 0 0.017 0 0.026 0h-0.001z" />
<glyph unicode="&#xe205;" glyph-name="footer_cCall" d="M659.704-48.485c-120.537 0.432-226.274 63.389-286.518 158.113l-0.822 1.383-214.109 343.195c-30.068 49.651-47.861 109.645-47.861 173.794 0 122.102 64.464 229.148 161.216 288.96l1.458 0.839 10.55 6.206c20.19 12.83 44.785 20.447 71.16 20.447 11.985 0 23.603-1.573 34.659-4.524l-0.936 0.213c36.991-8.411 67.625-30.935 86.548-61.477l0.337-0.584 37.236-62.061c11.842-19.973 18.84-44.025 18.84-69.713 0-39.147-16.254-74.498-42.38-99.672l-0.043-0.041-54.613-58.958c-9.035-8.898-14.632-21.265-14.632-34.938 0-8.576 2.202-16.638 6.072-23.652l-0.128 0.253 137.154-217.212c8.592-12.639 22.904-20.832 39.13-20.832 5.778 0 11.314 1.039 16.43 2.941l-0.326-0.106 71.37 23.583c13.261 4.675 28.552 7.376 44.474 7.376 48.656 0 91.421-25.222 115.934-63.305l0.329-0.546 40.339-62.061c13.669-21.027 21.798-46.751 21.798-74.372 0-50.253-26.905-94.222-67.096-118.288l-0.627-0.348-8.068-5.585c-50.5-30.727-111.55-48.947-176.85-49.028h-0.023zM235.83 500.752l212.868-341.954c44.471-71.203 122.412-117.872 211.253-117.872 48.396 0 93.557 13.849 131.737 37.8l-1.036-0.606 7.447 4.965c11.712 6.589 20.282 17.592 23.514 30.698l0.069 0.332c0.937 3.488 1.475 7.493 1.475 11.624 0 9.536-2.868 18.402-7.788 25.783l0.107-0.17-39.719 62.061c-8.573 13.641-23.541 22.575-40.595 22.575-5.692 0-11.151-0.995-16.213-2.821l0.333 0.105-71.37-23.583c-13.182-4.592-28.376-7.245-44.191-7.245-47.919 0-90.15 24.354-114.991 61.36l-0.315 0.498-139.016 220.936c-11.74 19.96-18.674 43.967-18.674 69.594 0 38.844 15.931 73.966 41.616 99.19l0.021 0.020 53.372 52.752c10.067 8.591 16.409 21.291 16.409 35.472 0 9.95-3.122 19.171-8.44 26.736l0.099-0.148-37.236 62.061c-6.684 11.093-17.403 19.179-30.078 22.273l-0.331 0.068c-3.502 0.918-7.522 1.446-11.665 1.446-9.23 0-17.849-2.617-25.155-7.149l0.204 0.118-11.171-6.206c-71.655-44.383-118.671-122.573-118.671-211.744 0-47.681 13.443-92.223 36.746-130.041l-0.615 1.073z" />
<glyph unicode="&#xe206;" glyph-name="footer_cCart" d="M986.764 695.622c-19.137 24.638-48.767 40.34-82.064 40.34-0.168 0-0.335 0-0.502-0.001h-629.269l-11.792 52.131c-15.011 62.983-64.753 111.272-127.411 123.943l-1.055 0.178-62.061 12.412c-2.721 0.543-5.849 0.853-9.049 0.853-23.302 0-42.758-16.465-47.371-38.395l-0.056-0.315c-0.537-2.688-0.844-5.778-0.844-8.94 0-23.178 16.501-42.501 38.396-46.864l0.305-0.051 62.061-12.412c26.722-5.487 47.581-25.724 53.895-51.655l0.098-0.476 22.342-100.538c-0.111-1.024-0.174-2.211-0.174-3.413s0.063-2.39 0.187-3.559l-0.012 0.146 36.616-220.315c14.862-105.724 104.718-186.183 213.366-186.183 0.261 0 0.522 0 0.783 0.001h301.575c0.045 0 0.098 0 0.151 0 100.553 0 185.148 68.325 209.89 161.082l0.344 1.517 49.028 186.182c2.916 9.129 4.596 19.629 4.596 30.521 0 24.169-8.273 46.406-22.142 64.033l0.169-0.222zM862.642 440.553c-14.976-52.189-61.946-89.864-117.83-90.608l-0.085-0.001h-301.615c-0.19-0.001-0.415-0.002-0.64-0.002-60.363 0-110.351 44.423-119.055 102.359l-0.082 0.663-28.548 186.182h609.435c1.007 0.442 2.18 0.699 3.413 0.699s2.407-0.257 3.469-0.72l-0.056 0.022c0.458-1.102 0.725-2.382 0.725-3.724s-0.266-2.622-0.749-3.79l0.024 0.066zM481.59 81.842c0-62.381-50.57-112.95-112.95-112.95s-112.95 50.57-112.95 112.95c0 62.381 50.57 112.95 112.95 112.95s112.95-50.57 112.95-112.95zM911.67 81.842c0-62.381-50.57-112.95-112.95-112.95s-112.95 50.57-112.95 112.95c0 62.381 50.57 112.95 112.95 112.95s112.95-50.57 112.95-112.95z" />
<glyph unicode="&#xe208;" glyph-name="footer_cCategoriesActive" d="M124.742 913.455h249.484c43.187 0 78.196-35.010 78.196-78.196v-249.484c0-43.187-35.010-78.196-78.196-78.196h-249.484c-43.187 0-78.196 35.010-78.196 78.196v249.484c0 43.187 35.010 78.196 78.196 78.196zM649.775 913.455h249.484c43.187 0 78.196-35.010 78.196-78.196v-249.484c0-43.187-35.010-78.196-78.196-78.196h-249.484c-43.187 0-78.196 35.010-78.196 78.196v249.484c0 43.187 35.010 78.196 78.196 78.196zM124.742 388.422h249.484c43.187 0 78.196-35.010 78.196-78.196v-249.484c0-43.187-35.010-78.196-78.196-78.196h-249.484c-43.187 0-78.196 35.010-78.196 78.196v249.484c0 43.187 35.010 78.196 78.196 78.196zM649.775 388.422h249.484c43.187 0 78.196-35.010 78.196-78.196v-249.484c0-43.187-35.010-78.196-78.196-78.196h-249.484c-43.187 0-78.196 35.010-78.196 78.196v249.484c0 43.187 35.010 78.196 78.196 78.196z" />
<glyph unicode="&#xe209;" glyph-name="footer_cDirection" d="M736.039 882.424c-63.921 39.084-141.277 62.227-224.039 62.227s-160.118-23.143-225.95-63.31l1.912 1.084c-105.090-61.096-174.617-173.161-174.617-301.466 0-4.417 0.082-8.816 0.246-13.193l-0.019 0.632c0-220.936 152.669-429.459 268.722-558.545 33.886-37.773 82.693-61.57 137.067-62.060l0.087-0.001c0.176-0.001 0.384-0.001 0.593-0.001 50.94 0 96.938 21.163 129.679 55.178l0.055 0.057c115.433 117.295 260.655 314.647 260.655 558.545 0.339 5.741 0.531 12.455 0.531 19.213 0 128.428-69.661 240.585-173.259 300.749l-1.663 0.891zM583.37 71.913c-15.578-16.61-37.575-27.038-62.012-27.306h-0.049c-0.162-0.001-0.354-0.002-0.545-0.002-26.893 0-51.049 11.716-67.643 30.322l-0.078 0.089c-93.091 99.918-246.381 296.029-246.381 493.382-0.189 3.668-0.296 7.965-0.296 12.286 0 94.913 51.84 177.717 128.75 221.644l1.252 0.659c50.163 30.435 110.794 48.447 175.632 48.447s125.468-18.012 177.16-49.306l-1.529 0.859c78.162-44.585 130.003-127.39 130.003-222.303 0-4.321-0.107-8.617-0.32-12.886l0.024 0.6c0-213.488-127.224-387.879-233.968-496.485zM512 696.242c-102.825 0-186.182-83.356-186.182-186.182s83.356-186.182 186.182-186.182c102.825 0 186.182 83.356 186.182 186.182v0c0 102.825-83.356 186.182-186.182 186.182v0zM512 416.97c-51.413 0-93.091 41.678-93.091 93.091s41.678 93.091 93.091 93.091c51.413 0 93.091-41.678 93.091-93.091v0c0-51.413-41.678-93.091-93.091-93.091v0z" />
<glyph unicode="&#xe210;" glyph-name="footer_cHome" d="M915.394 643.491l-328.301 273.687c-20.336 17.668-47.078 28.437-76.335 28.437s-55.998-10.769-76.478-28.558l0.143 0.122-325.818-273.687c-35.382-29.688-57.718-73.927-57.718-123.383 0-0.259 0.001-0.519 0.002-0.778v0.040-342.575c0 0 0-0.001 0-0.001 0-124.543 100.786-225.547 225.246-225.9h471.695c124.494 0.353 225.28 101.356 225.28 225.9 0 0 0 0.001 0 0.001v0 343.195c0 0.035 0 0.077 0 0.119 0 49.455-22.335 93.694-57.468 123.179l-0.248 0.203zM397.808 43.365v242.036c0 63.066 51.125 114.192 114.192 114.192s114.192-51.125 114.192-114.192v-242.036zM883.122 177.416c0 0 0-0.001 0-0.001 0-74.844-60.497-135.559-135.259-135.911h-31.064v243.898c0 113.108-91.692 204.8-204.8 204.8s-204.8-91.692-204.8-204.8v0-243.898h-31.030c-74.795 0.352-135.292 61.067-135.292 135.911 0 0.001 0 0.001 0 0.002v0 342.575c0 0.070 0 0.153 0 0.236 0 21.608 9.86 40.913 25.326 53.662l0.119 0.095 330.162 274.308c4.683 3.885 10.755 6.243 17.377 6.243s12.694-2.357 17.422-6.279l-0.045 0.036 328.301-274.308c15.585-12.844 25.445-32.149 25.445-53.757 0-0.083 0-0.166 0-0.248v0.013z" />
<glyph unicode="&#xe211;" glyph-name="footer_cHomeActive" d="M918.497 637.905l-338.851 282.376c-18.258 15.047-41.887 24.171-67.646 24.171s-49.388-9.124-67.829-24.317l0.183 0.146-338.851-282.376c-33.377-27.892-54.492-69.495-54.613-116.032v-353.146c0-119.963 97.249-217.212 217.212-217.212v0h47.787c34.275 0 62.061 27.785 62.061 62.061v0 257.552c-0.036 1.18-0.056 2.568-0.056 3.961 0 71.673 53.999 130.733 123.532 138.718l0.645 0.060c2.643 0.184 5.727 0.289 8.836 0.289 37.241 0 70.967-15.047 95.432-39.392l-0.005 0.005c24.177-23.963 39.146-57.183 39.146-93.898 0-1.244-0.017-2.484-0.051-3.719l0.004 0.182v-266.861c0-34.275 27.785-62.061 62.061-62.061v0h47.787c119.963 0 217.212 97.249 217.212 217.212v0 356.228c0 0.040 0 0.088 0 0.136 0 46.416-20.884 87.955-53.768 115.732l-0.225 0.185z" />
<glyph unicode="&#xe212;" glyph-name="footer_cMsg" d="M832 860.8h-640c-106.039 0-192-85.961-192-192v0-441.6c0-106.039 85.961-192 192-192v0h640c106.039 0 192 85.961 192 192v0 441.6c0 106.039-85.961 192-192 192v0zM832 764.8h4.48c-54.4-64-192-218.24-249.6-268.8-20.386-16.184-46.491-25.964-74.88-25.964s-54.494 9.78-75.13 26.155l0.25-0.191c-58.88 49.92-195.2 208-249.6 268.16h644.48zM928 227.2c0.034-0.954 0.053-2.075 0.053-3.2 0-53.019-42.981-96-96-96-0.019 0-0.038 0-0.056 0h-639.997c-53.019 0-96 42.981-96 96v0 444.8c0.044 15.644 3.823 30.395 10.492 43.422l-0.252-0.542c48.64-56.32 200.32-231.040 268.16-289.28 37.129-30.636 85.194-49.217 137.6-49.217s100.472 18.58 137.97 49.513l-0.37-0.296c67.84 58.24 219.52 232.96 268.16 289.28 6.417-12.485 10.196-27.236 10.24-42.866v-0.014z" />
<glyph unicode="&#xe213;" glyph-name="footer_cSearch" d="M992.97 29.091l-236.451 236.451c-1.8 1.383-3.838 2.625-6.004 3.639l-0.202 0.085c57.101 70.303 91.681 160.904 91.681 259.582 0 228.272-185.051 413.324-413.324 413.324s-413.324-185.051-413.324-413.324c0-228.272 185.051-413.324 413.324-413.324 98.678 0 189.279 34.58 260.347 92.283l-0.765-0.602c1.098-2.368 2.341-4.406 3.781-6.284l-0.058 0.078 238.933-233.968c8.425-8.437 20.071-13.657 32.937-13.657 0.203 0 0.405 0.001 0.607 0.004h-0.031c11.239 1.205 21.131 6.195 28.546 13.651l0.002 0.002c7.001 8.338 11.254 19.187 11.254 31.030s-4.253 22.693-11.315 31.105l0.061-0.075zM429.459 211.549c-0.184 0-0.402-0.001-0.62-0.001-176.517 0-319.612 143.095-319.612 319.612s143.095 319.612 319.612 319.612c176.517 0 319.612-143.095 319.612-319.612 0-0.218 0-0.436-0.001-0.654v0.034c-0.352-176.032-142.959-318.639-318.957-318.991h-0.034z" />
<glyph unicode="&#xe214;" glyph-name="footer_order" d="M960.698 240.097h-41.581c0.452 6.312 0.71 13.676 0.71 21.101s-0.258 14.789-0.765 22.084l0.055-0.984c0 0.035 0 0.076 0 0.118 0 192.644-132.791 354.273-311.833 398.346l-2.814 0.586c-9.033 43.789-47.272 76.242-93.091 76.242s-84.058-32.453-92.985-75.627l-0.106-0.615c-183.814-43.231-318.615-205.655-318.991-399.628v-0.042c0.092-14.969 1.217-29.591 3.307-43.901l-0.204 1.699h-40.339c-26.466-0.35-47.787-21.887-47.787-48.403 0-0.001 0-0.003 0-0.004v0c0-26.392 21.395-47.787 47.787-47.787v0h898.638c26.392 0 47.787 21.395 47.787 47.787v0c0.003 0.186 0.004 0.405 0.004 0.625 0 26.518-21.323 48.055-47.758 48.403h-0.033zM197.973 282.298c0 173.432 140.595 314.027 314.027 314.027s314.027-140.595 314.027-314.027v0c-0.118-14.994-1.242-29.615-3.308-43.931l0.205 1.73h-620.606c-2.236 12.314-3.794 26.85-4.328 41.647l-0.016 0.554z" />
<glyph unicode="&#xe215;" glyph-name="footer_orderActive" d="M151.793 83.576v0 0zM230.701-17.016v0h-10.24zM70.475 78.758h883.049c0.76-0.079 1.641-0.124 2.534-0.124 14.305 0 25.901 11.596 25.901 25.901 0 0.892-0.045 1.774-0.133 2.643l0.009-0.109v27.708h-939.671v-28.311c-0.046-0.577-0.072-1.248-0.072-1.926 0-14.305 11.596-25.901 25.901-25.901 0.874 0 1.737 0.043 2.589 0.128l-0.108-0.009zM551.153 693.158h-9.035v68.066h52.405c0.76-0.079 1.641-0.124 2.534-0.124 14.305 0 25.901 11.596 25.901 25.901 0 0.892-0.045 1.774-0.133 2.643l0.009-0.109c0.079 0.76 0.124 1.641 0.124 2.534 0 14.305-11.596 25.901-25.901 25.901-0.892 0-1.774-0.045-2.643-0.133l0.109 0.009h-162.635c-0.76 0.079-1.641 0.124-2.534 0.124-14.305 0-25.901-11.596-25.901-25.901 0-0.892 0.045-1.774 0.133-2.643l-0.009 0.109c-0.079-0.76-0.124-1.641-0.124-2.534 0-14.305 11.596-25.901 25.901-25.901 0.892 0 1.774 0.045 2.643 0.133l-0.109-0.009h49.995v-67.464h-9.035c-239.299-17.928-427.132-214.765-430.678-456.233l-0.004-0.35h939.671c-3.87 241.563-191.587 438.073-429.133 455.888l-1.549 0.093z" />
<glyph unicode="&#xe216;" glyph-name="footer_Social" d="M707.491 127.767c-53.848-38.803-121.149-62.059-193.881-62.059-98.929 0-187.81 43.026-248.949 111.386l-0.283 0.322c18.112 23.032 29.079 52.428 29.168 84.382v0.020c0 76.776-62.239 139.016-139.016 139.016s-139.016-62.239-139.016-139.016c0-76.776 62.239-139.016 139.016-139.016v0c0.429-0.005 0.936-0.008 1.443-0.008 10.729 0 21.14 1.361 31.069 3.92l-0.861-0.188 4.344-5.585c79.075-91.089 195.047-148.354 324.393-148.354 92.894 0 178.889 29.536 249.106 79.729l-1.301-0.883c11.689 8.685 19.181 22.451 19.181 37.967 0 10.192-3.233 19.629-8.728 27.341l0.098-0.144c-8.358 12.371-22.329 20.396-38.176 20.396-10.414 0-20.019-3.466-27.723-9.308l0.114 0.083zM108.606 261.818c0 25.364 20.561 45.925 45.925 45.925s45.925-20.561 45.925-45.925c0-25.364-20.561-45.925-45.925-45.925v0c-25.364 0-45.925 20.561-45.925 45.925v0zM129.707 434.967h9.309c0.398-0.012 0.867-0.019 1.337-0.019 22.091 0 40.634 15.187 45.76 35.689l0.069 0.325c25.009 110.313 101.315 198.691 201.925 239.976l2.254 0.819c24.499-40.427 68.255-67.029 118.224-67.029 0.328 0 0.656 0.001 0.983 0.003h-0.050c0.232-0.001 0.507-0.002 0.782-0.002 77.119 0 139.636 62.517 139.636 139.636s-62.517 139.636-139.636 139.636c-69.45 0-127.058-50.702-137.829-117.11l-0.107-0.803c-141.079-50.066-246.644-167.752-278.743-313.034l-0.53-2.855c-0.707-3.019-1.112-6.485-1.112-10.046 0-22.466 16.132-41.164 37.444-45.143l0.284-0.044zM509.518 830.293c0.183 0.003 0.4 0.004 0.617 0.004 25.706 0 46.545-20.839 46.545-46.545s-20.839-46.545-46.545-46.545c-25.706 0-46.545 20.839-46.545 46.545 0 0.217 0.001 0.433 0.004 0.649v-0.033c0 25.364 20.561 45.925 45.925 45.925v0zM941.459 380.354c0 7.447 0 14.274 0 21.721-0.030 156.879-83.21 294.323-207.866 370.662l-1.899 1.081c-7.006 4.229-15.468 6.731-24.514 6.731-26.511 0-48.002-21.491-48.002-48.002 0-17.465 9.327-32.751 23.272-41.15l0.216-0.121c100.253-59.365 166.522-166.808 166.943-289.762v-0.061c-67.489-10.304-118.592-67.938-118.592-137.507 0-76.776 62.239-139.016 139.016-139.016s139.016 62.239 139.016 139.016c0 50.147-26.552 94.092-66.365 118.544l-0.604 0.345zM868.848 215.273c-25.364 0-45.925 20.561-45.925 45.925s20.561 45.925 45.925 45.925c25.364 0 45.925-20.561 45.925-45.925v0c0-25.364-20.561-45.925-45.925-45.925v0z" />
<glyph unicode="&#xe217;" glyph-name="footer_SocialActive" d="M674.033 82.372c-47.117-24.658-102.922-39.125-162.106-39.125-85.211 0-163.417 29.989-224.641 79.988l0.638-0.505c17.681 23.502 28.315 53.178 28.315 85.339 0 78.843-63.915 142.758-142.758 142.758s-142.758-63.915-142.758-142.758c0-78.843 63.915-142.758 142.758-142.758 25.67 0 49.757 6.775 70.572 18.635l-0.703-0.369h-2.409c71.824-61.115 165.664-98.289 268.185-98.289 70.186 0 136.302 17.422 194.261 48.178l-2.248-1.088c9.461 5.078 15.785 14.901 15.785 26.202 0 16.369-13.27 29.639-29.639 29.639-5.069 0-9.84-1.272-14.012-3.515l0.158 0.078zM128.301 385.355c0.046 0 0.1 0 0.154 0 16.301 0 29.515 13.214 29.515 29.515 0 1.061-0.056 2.109-0.165 3.141l0.011-0.129c0.777 21.745 4.026 42.387 9.478 62.114l-0.443-1.879c26.756 111.171 103.386 200.283 204.313 243.678l2.294 0.878c19.597-57.388 73.049-97.921 135.968-97.921 79.176 0 143.36 64.184 143.36 143.36s-64.184 143.36-143.36 143.36c-73.964 0-134.845-56.013-142.54-127.934l-0.055-0.63c-128.060-48.646-224.067-155.578-256.614-287.501l-0.591-2.833c-6.33-22.244-10.249-47.885-10.836-74.347l-0.006-0.345c0-16.301 13.214-29.515 29.515-29.515v0zM919.793 331.746c3.071 18.662 4.826 40.168 4.826 62.084 0 0.833-0.003 1.665-0.008 2.496l0.001-0.128c0.002 0.519 0.004 1.132 0.004 1.746 0 141.388-71.011 266.19-179.314 340.688l-1.396 0.907c-4.65 3.157-10.387 5.041-16.565 5.041-16.423 0-29.737-13.314-29.737-29.737 0-10.246 5.182-19.282 13.068-24.63l0.104-0.067c95.955-64.184 158.315-172.074 158.419-294.535v-0.016c-0.111-17.31-1.421-34.214-3.851-50.754l0.237 1.964h-12.649c-0.081 0-0.177 0-0.273 0-79.176 0-143.36-64.184-143.36-143.36s64.184-143.36 143.36-143.36c79.176 0 143.36 64.184 143.36 143.36 0 53.161-28.936 99.564-71.917 124.318l-0.695 0.369z" />
<glyph unicode="&#xe221;" glyph-name="micNew" d="M510.759 273.125c112.155 0.353 202.938 91.354 202.938 203.558 0 0 0 0.001 0 0.001v0 248.242c0.812 6.818 1.276 14.714 1.276 22.719 0 112.080-90.859 202.938-202.938 202.938s-202.938-90.859-202.938-202.938c0-7.785 0.438-15.468 1.292-23.025l-0.085 0.926v-248.242c-0.002-0.373-0.004-0.815-0.004-1.256 0-111.208 89.451-201.524 200.328-202.922l0.132-0.001zM850.23 453.101c0 23.65-19.172 42.822-42.822 42.822s-42.822-19.172-42.822-42.822v0c0-139.5-113.087-252.587-252.587-252.587s-252.587 113.087-252.587 252.587v0c0 23.65-19.172 42.822-42.822 42.822s-42.822-19.172-42.822-42.822v0c0.244-172.071 128.706-314.063 294.952-335.568l1.698-0.179v-139.016c0-23.65 19.172-42.822 42.822-42.822s42.822 19.172 42.822 42.822v0 139.636c166.671 22.802 293.769 164.062 294.167 335.086v0.042z" />
<glyph unicode="&#xe222;" glyph-name="directSearch" d="M976.896 40.448l-802.816 802.816h471.040c22.528 0 40.96 18.432 40.96 40.96s-18.432 40.96-40.96 40.96h-569.344c-22.528 0-40.96-18.432-40.96-40.96v-569.344c0-22.528 18.432-40.96 40.96-40.96s40.96 18.432 40.96 40.96v471.040l802.816-802.816c8.192-8.192 18.432-12.288 28.672-12.288s20.48 4.096 28.672 12.288c16.384 15.36 16.384 41.984 0 57.344z" />
<glyph unicode="&#xe223;" glyph-name="HDRcall" d="M768-53.76c-5.12 0-10.24 0-15.36 0-61.44 5.12-128 20.48-199.68 56.32-133.12 61.44-245.76 153.6-343.040 266.24-76.8 92.16-133.12 184.32-168.96 281.6-15.36 40.96-35.84 102.4-30.72 168.96 5.12 46.080 20.48 81.92 51.2 112.64 15.36 15.36 30.72 30.72 40.96 40.96 15.36 15.36 25.6 25.6 35.84 35.84 51.2 51.2 122.88 51.2 174.080 0 15.36-15.36 30.72-25.6 46.080-40.96l76.8-76.8c51.2-51.2 51.2-128 0-179.2l-10.24-10.24c-15.36-15.36-30.72-30.72-46.080-46.080 10.24-25.6 25.6-46.080 51.2-71.68 56.32-66.56 112.64-117.76 168.96-153.6 5.12-5.12 15.36-10.24 20.48-10.24 20.48 20.48 35.84 35.84 56.32 56.32 51.2 51.2 122.88 51.2 179.2 0v0c40.96-40.96 76.8-76.8 117.76-117.76 51.2-51.2 51.2-122.88 0-179.2-10.24-10.24-15.36-15.36-25.6-25.6-15.36-15.36-30.72-25.6-40.96-40.96-35.84-46.080-81.92-66.56-138.24-66.56zM230.4 847.36c-5.12 0-10.24-5.12-15.36-10.24-15.36-10.24-20.48-20.48-30.72-30.72-15.36-15.36-30.72-30.72-46.080-46.080-15.36-10.24-20.48-25.6-20.48-46.080-5.12-35.84 0-76.8 20.48-122.88 30.72-87.040 81.92-168.96 148.48-250.88 87.040-102.4 189.44-184.32 307.2-240.64 61.44-30.72 112.64-46.080 158.72-46.080 30.72 0 56.32 5.12 71.68 25.6 15.36 15.36 30.72 30.72 46.080 46.080 5.12 5.12 15.36 15.36 20.48 20.48 15.36 15.36 15.36 20.48 0 35.84-40.96 40.96-76.8 76.8-117.76 117.76-10.24 10.24-20.48 10.24-30.72 0-25.6-25.6-51.2-46.080-71.68-71.68-25.6-25.6-56.32-30.72-81.92-10.24-5.12 5.12-10.24 5.12-15.36 10.24-10.24 5.12-20.48 10.24-30.72 15.36-71.68 46.080-133.12 102.4-194.56 179.2-35.84 35.84-56.32 76.8-71.68 112.64-15.36 30.72-10.24 56.32 10.24 76.8 25.6 20.48 46.080 40.96 66.56 61.44l10.24 10.24c15.36 15.36 15.36 20.48 0 35.84l-76.8 76.8c-15.36 15.36-30.72 25.6-40.96 40.96-5.12 5.12-10.24 10.24-15.36 10.24zM604.16 299.52c0 0 0 0 0 0s0 0 0 0zM645.12 304.64c0 0 0 0 0 0s0 0 0 0z" />
<glyph unicode="&#xe224;" glyph-name="HDRcart" d="M455.68 38.4c0-53.726-43.554-97.28-97.28-97.28s-97.28 43.554-97.28 97.28c0 53.726 43.554 97.28 97.28 97.28s97.28-43.554 97.28-97.28zM926.72 38.4c0-53.726-43.554-97.28-97.28-97.28s-97.28 43.554-97.28 97.28c0 53.726 43.554 97.28 97.28 97.28s97.28-43.554 97.28-97.28zM998.4 642.56c-20.48 25.6-46.080 40.96-76.8 46.080l-645.12 46.080c0 0 0 0 0 0l-15.36 143.36c-5.12 40.96-35.84 76.8-81.92 76.8h-117.76c-30.72 0-51.2-25.6-51.2-51.2 0-30.72 25.6-51.2 51.2-51.2h97.28l61.44-599.040c0-5.12 0-10.24 5.12-15.36 5.12-20.48 25.6-35.84 46.080-35.84h517.12c71.68 0 133.12 46.080 153.6 112.64l66.56 245.76c15.36 25.6 10.24 56.32-10.24 81.92zM844.8 340.48c-5.12-20.48-30.72-35.84-51.2-35.84h-476.16l-30.72 327.68 629.76-46.080-71.68-245.76z" />
<glyph unicode="&#xe225;" glyph-name="HDRback" horiz-adv-x="584" d="M517.12-64c-15.36 0-30.72 5.12-40.96 15.36l-455.68 455.68c-20.48 20.48-20.48 61.44 5.12 81.92l455.68 455.68c20.48 20.48 56.32 20.48 81.92 0 20.48-20.48 20.48-56.32 0-81.92l-419.84-414.72 414.72-414.72c20.48-20.48 20.48-56.32 0-81.92-10.24-10.24-25.6-15.36-40.96-15.36z" />
<glyph unicode="&#xe227;" glyph-name="HDRcross" d="M593.063 448l399.189 401.485c4.714 8.148 7.497 17.924 7.497 28.35 0 31.676-25.679 57.355-57.355 57.355-11.6 0-22.394-3.444-31.421-9.362l0.218 0.133-399.189-396.894-401.485 396.894c-7.23 3.534-15.735 5.599-24.719 5.599-31.676 0-57.355-25.679-57.355-57.355 0-8.985 2.066-17.489 5.75-25.060l-0.15 0.34 396.894-401.485-396.894-399.189c-10.364-10.375-16.772-24.704-16.772-40.531s6.409-30.153 16.773-40.532v0c10.375-10.364 24.704-16.772 40.531-16.772s30.153 6.409 40.532 16.773v0l396.894 399.189 399.189-399.189c10.375-10.364 24.704-16.772 40.531-16.772s30.153 6.409 40.532 16.773v0c10.364 10.375 16.772 24.704 16.772 40.531s-6.409 30.153-16.773 40.532v0z" />
<glyph unicode="&#xe228;" glyph-name="HDRhelp" d="M512 960c-281.6 0-512-230.4-512-512s230.4-512 512-512 512 230.4 512 512-230.4 512-512 512zM512 17.92c-240.64 0-430.080 194.56-430.080 430.080s189.44 430.080 430.080 430.080 430.080-194.56 430.080-430.080-189.44-430.080-430.080-430.080zM465.92 248.32h92.16v-87.040h-92.16v87.040zM645.12 678.4v0c-15.36 15.36-30.72 25.6-56.32 35.84-20.48 10.24-46.080 15.36-76.8 15.36-25.6 0-51.2-5.12-71.68-15.36s-40.96-20.48-51.2-35.84c-15.36-15.36-30.72-30.72-40.96-56.32-5.12-20.48-10.24-35.84-10.24-66.56v-15.36h92.16v15.36c0 30.72 5.12 51.2 20.48 66.56 15.36 20.48 35.84 25.6 61.44 25.6s46.080-5.12 56.32-15.36c10.24-10.24 15.36-30.72 15.36-51.2 0-15.36-5.12-30.72-15.36-46.080-15.36-15.36-25.6-30.72-40.96-40.96-15.36-15.36-25.6-30.72-40.96-51.2-15.36-15.36-20.48-35.84-20.48-61.44v-66.56h92.16v40.96c0 15.36 0 25.6 5.12 35.84s15.36 20.48 20.48 30.72c10.24 10.24 20.48 20.48 30.72 30.72s20.48 20.48 30.72 30.72c15.36 15.36 20.48 25.6 30.72 40.96 5.12 15.36 10.24 30.72 10.24 51.2 0 15.36-5.12 35.84-10.24 51.2-5.12 20.48-15.36 35.84-30.72 51.2v0z" />
<glyph unicode="&#xe229;" glyph-name="HDRmore" horiz-adv-x="246" d="M220.16 826.88c0-56.554-45.846-102.4-102.4-102.4s-102.4 45.846-102.4 102.4c0 56.554 45.846 102.4 102.4 102.4s102.4-45.846 102.4-102.4zM225.28 448c0-56.554-45.846-102.4-102.4-102.4s-102.4 45.846-102.4 102.4c0 56.554 45.846 102.4 102.4 102.4s102.4-45.846 102.4-102.4zM230.4 69.12c0-56.554-45.846-102.4-102.4-102.4s-102.4 45.846-102.4 102.4c0 56.554 45.846 102.4 102.4 102.4s102.4-45.846 102.4-102.4z" />
<glyph unicode="&#xe230;" glyph-name="HDRsearch" d="M992.97 29.091l-236.451 236.451c-1.8 1.383-3.838 2.625-6.004 3.639l-0.202 0.085c57.101 70.303 91.681 160.904 91.681 259.582 0 228.272-185.051 413.324-413.324 413.324s-413.324-185.051-413.324-413.324c0-228.272 185.051-413.324 413.324-413.324 98.678 0 189.279 34.58 260.347 92.283l-0.765-0.602c1.098-2.368 2.341-4.406 3.781-6.284l-0.058 0.078 238.933-233.968c8.425-8.437 20.071-13.657 32.937-13.657 0.203 0 0.405 0.001 0.607 0.004h-0.031c11.239 1.205 21.131 6.195 28.546 13.651l0.002 0.002c7.001 8.338 11.254 19.187 11.254 31.030s-4.253 22.693-11.315 31.105l0.061-0.075zM429.459 211.549c-0.184 0-0.402-0.001-0.62-0.001-176.517 0-319.612 143.095-319.612 319.612s143.095 319.612 319.612 319.612c176.517 0 319.612-143.095 319.612-319.612 0-0.218 0-0.436-0.001-0.654v0.034c-0.352-176.032-142.959-318.639-318.957-318.991h-0.034z" />
<glyph unicode="&#xe231;" glyph-name="ViewWeb" d="M189.44 727.552c11.264 11.264 25.6 16.384 41.984 16.384h567.296c16.384 0 30.72-5.12 41.984-16.384 5.12-5.12 9.216-11.264 12.288-18.432h29.696c-3.072 13.312-10.24 25.6-21.504 36.864-18.432 16.384-38.912 24.576-62.464 24.576h-567.296c-24.576 0-43.008-8.192-60.416-24.576-11.264-11.264-17.408-22.528-21.504-36.864h27.648c3.072 7.168 8.192 12.288 12.288 18.432zM188.416 577.024h1.024l4.096-22.528 53.248-187.392h32.768l65.536 268.288h-39.936l-37.888-175.104-6.144-34.816h-1.024l-5.12 34.816-48.128 175.104h-34.816l-48.128-175.104-7.168-34.816h-1.024l-4.096 34.816-38.912 175.104h-38.912l64.512-268.288h31.744l55.296 187.392zM585.728 425.472h-1.024l-5.12 34.816-48.128 175.104h-35.84l-47.104-175.104-7.168-34.816h-1.024l-4.096 34.816-38.912 175.104h-38.912l64.512-268.288h31.744l54.272 187.392 3.072 22.528h2.048l4.096-22.528 53.248-187.392h31.744l65.536 268.288h-39.936l-37.888-175.104zM921.6 425.472h-1.024l-6.144 34.816-47.104 175.104h-35.84l-48.128-175.104-6.144-34.816h-1.024l-5.12 34.816-38.912 175.104h-37.888l63.488-268.288h32.768l54.272 187.392 3.072 22.528h1.024l5.12-22.528 53.248-187.392h31.744l65.536 268.288h-39.936l-37.888-175.104zM849.92 306.688c-3.072-8.192-7.168-13.312-12.288-18.432-11.264-11.264-25.6-16.384-41.984-16.384h-564.224c-16.384 0-30.72 5.12-41.984 16.384-10.24 10.24-15.36 23.552-16.384 37.888h-25.6c1.024-22.528 9.216-40.96 24.576-56.32 16.384-16.384 35.84-24.576 60.416-24.576h271.36v-115.712h-129.024c-3.072 0-8.192-2.048-9.216-3.072s-3.072-5.12-3.072-9.216 2.048-8.192 3.072-9.216c1.024-1.024 5.12-3.072 9.216-3.072h284.672c2.048 0 4.096 1.024 5.12 1.024-4.096 8.192-9.216 15.36-12.288 23.552h-121.856v115.712h99.328c0 0 0 0 0 0h167.936c23.552 0 43.008 8.192 62.464 24.576 11.264 11.264 17.408 23.552 21.504 36.864h-31.744z" />
<glyph unicode="&#xe235;" glyph-name="HDRburger" horiz-adv-x="1395" d="M750.562 538.854h-672.236c-42.015 0-76.959-42.015-76.959-84.043s35.012-77.027 77.027-84.029h672.168c42.015 0 77.027 42.015 77.027 84.029s-35.012 77.041-77.027 84.043zM1.368 888.977v0c0-49.017 35.012-84.029 77.027-84.029h770.27c42.015 0 77.027 35.012 77.027 77.027v0c0 42.015-35.012 77.027-77.027 77.027h-770.339c-42.015 7.002-76.959-28.010-76.959-70.025v0zM1317.761 104.688h-1239.435c-42.015 0-76.959-42.001-76.959-84.029s35.012-77.027 77.027-84.029h1239.367c42.015 0 77.027 42.015 77.027 84.029s-35.012 77.041-77.027 84.029z" />
<glyph unicode="&#xe236;" glyph-name="Mute" d="M59.598 658.326c-0.087 0.001-0.19 0.001-0.293 0.001-12.543 0-23.842-5.328-31.756-13.844l-0.025-0.027c-9.809-10.469-15.834-24.589-15.834-40.115 0-0.449 0.005-0.898 0.015-1.345l-0.001 0.066v-310.342c-0.009-0.381-0.014-0.829-0.014-1.278 0-15.526 6.025-29.646 15.864-40.147l-0.030 0.032c7.939-8.543 19.238-13.871 31.781-13.871 0.103 0 0.206 0 0.309 0.001h130.016c9.934 0 17.988 8.053 17.988 17.988v0 384.894c0 9.934-8.053 17.988-17.988 17.988v0zM570.189 933.777c-7.939 8.543-19.238 13.871-31.781 13.871-0.103 0-0.206 0-0.309-0.001h0.016c-0.085 0.001-0.186 0.001-0.286 0.001-13.355 0-25.299-6.040-33.25-15.537l-0.055-0.068-238.392-260.063c-4.838-5.295-7.802-12.373-7.802-20.144 0-0.004 0-0.007 0-0.011v0.001-406.999c0-0.003 0-0.007 0-0.010 0-7.771 2.964-14.85 7.823-20.168l-0.021 0.023 238.392-260.063c8.006-9.565 19.95-15.605 33.305-15.605 0.101 0 0.201 0 0.302 0.001h-0.015c0.028 0 0.061 0 0.094 0 12.646 0 24.028 5.416 31.951 14.055l0.029 0.032c9.807 10.438 15.832 24.529 15.832 40.027 0 0.404-0.004 0.808-0.012 1.21l0.001-0.060v888.55c0.005 0.279 0.008 0.608 0.008 0.937 0 15.496-6.023 29.585-15.857 40.053l0.029-0.031zM1004.062 610.431v0c-6.858 6.832-16.318 11.056-26.765 11.056s-19.907-4.224-26.766-11.057l-108.359-108.359-108.36 108.36c-6.858 6.832-16.318 11.056-26.765 11.056s-19.907-4.224-26.766-11.057l0.001 0.001c-6.832-6.858-11.056-16.318-11.056-26.765s4.224-19.907 11.057-26.766l108.359-108.359-108.36-108.36c-6.832-6.858-11.056-16.318-11.056-26.765s4.224-19.907 11.057-26.766l-0.001 0.001c6.858-6.832 16.318-11.056 26.765-11.056s19.907 4.224 26.766 11.057l108.359 108.359 108.36-108.36c6.858-6.832 16.318-11.056 26.765-11.056s19.907 4.224 26.766 11.057l-0.001-0.001c6.832 6.858 11.056 16.318 11.056 26.765s-4.224 19.907-11.057 26.766l-108.359 108.359 108.36 108.36c6.832 6.858 11.056 16.318 11.056 26.765s-4.224 19.907-11.057 26.766l0.001-0.001z" />
<glyph unicode="&#xe237;" glyph-name="unMute" d="M59.598 658.326c-0.087 0.001-0.19 0.001-0.293 0.001-12.543 0-23.842-5.328-31.756-13.844l-0.025-0.027c-9.809-10.469-15.834-24.589-15.834-40.115 0-0.449 0.005-0.898 0.015-1.345l-0.001 0.066v-310.342c-0.009-0.381-0.014-0.829-0.014-1.278 0-15.526 6.025-29.646 15.864-40.147l-0.030 0.032c7.939-8.543 19.238-13.871 31.781-13.871 0.103 0 0.206 0 0.309 0.001h130.016c9.934 0 17.988 8.053 17.988 17.988v0 384.894c0 9.934-8.053 17.988-17.988 17.988v0zM570.189 933.777c-7.939 8.543-19.238 13.871-31.781 13.871-0.103 0-0.206 0-0.309-0.001h0.016c-0.085 0.001-0.186 0.001-0.286 0.001-13.355 0-25.299-6.040-33.25-15.537l-0.055-0.068-238.392-260.063c-4.838-5.295-7.802-12.373-7.802-20.144 0-0.004 0-0.007 0-0.011v0.001-406.999c0-0.003 0-0.007 0-0.010 0-7.771 2.964-14.85 7.823-20.168l-0.021 0.023 238.392-260.063c8.006-9.565 19.95-15.605 33.305-15.605 0.101 0 0.201 0 0.302 0.001h-0.015c0.028 0 0.061 0 0.094 0 12.646 0 24.028 5.416 31.951 14.055l0.029 0.032c9.807 10.438 15.832 24.529 15.832 40.027 0 0.404-0.004 0.808-0.012 1.21l0.001-0.060v888.55c0.005 0.279 0.008 0.608 0.008 0.937 0 15.496-6.023 29.585-15.857 40.053l0.029-0.031zM684.834 207.116v0c-5.563 6.612-8.942 15.22-8.942 24.619 0 10.090 3.895 19.269 10.264 26.117l-0.022-0.024c41.579 47.465 67.377 109.669 68.696 177.87l0.004 0.274c-1.236 68.030-26.621 129.902-67.915 177.63l0.299-0.353c-5.946 6.724-9.576 15.616-9.576 25.356s3.63 18.632 9.611 25.397l-0.036-0.041c6.96 8.165 17.255 13.31 28.752 13.31 10.885 0 20.692-4.612 27.575-11.987l0.020-0.022c53.416-61.050 86.543-141.039 88.2-228.728l0.005-0.345c-1.948-88.874-35.967-169.444-90.895-230.939l0.306 0.349c-6.897-7.337-16.664-11.907-27.499-11.907-11.549 0-21.885 5.192-28.802 13.368l-0.046 0.055zM801.862 93.122v0c-5.524 6.545-8.882 15.075-8.882 24.389 0 10.551 4.308 20.096 11.262 26.97l0.004 0.004c79.261 80.919 128.874 191.145 131.109 312.948l0.006 0.429c-3.077 124.653-54.395 236.751-135.909 318.82l0.026-0.026c-7.229 6.883-11.725 16.581-11.725 27.328 0 9.064 3.198 17.381 8.527 23.885l-0.053-0.067c7.009 8.588 17.594 14.028 29.449 14.028 10.087 0 19.255-3.938 26.049-10.361l-0.018 0.017c96.913-95.459 157.757-227.299 160.366-373.352l0.007-0.489c-2.377-143.699-60.651-273.341-153.957-368.511l0.086 0.088c-6.822-6.632-16.146-10.721-26.425-10.721-12.123 0-22.917 5.688-29.86 14.54l-0.062 0.082z" />
<glyph unicode="&#xe600;" glyph-name="edit" d="M969.248 907.008c-65.856 65.696-172.224 65.664-237.952 0 0 0-28.672-28.672-28.48-28.576l237.824-237.824c-0.064-0.16 28.544 28.448 28.544 28.448 65.76 65.728 65.76 172.288 0.064 237.952zM833.728 631.712l-562.656-562.304-140.192 140.16 0.128 0.352 562.176 562.24c13.536 13.568 13.536 35.36 0 48.928-13.472 13.568-35.392 13.568-48.896 0l-568.704-568.768c-4.352-4.448-7.424-9.76-9.024-15.52l-69.408-258.816c-3.232-11.872 0.256-24.608 8.928-33.344 6.56-6.56 15.392-10.208 24.512-10.208 2.976 0 5.952 0.416 8.896 1.248l258.816 69.568c5.824 1.472 11.136 4.576 15.424 8.8l568.768 568.768c13.536 13.536 13.536 35.36 0 48.896-13.408 13.44-35.296 13.44-48.768 0z" />
<glyph unicode="&#xe604;" glyph-name="plus" d="M778.208 499.2h-215.104v215.104c0 28.256-22.88 30.72-51.2 30.72-28.256 0-51.232-2.4-51.232-30.72v-215.104h-214.976c-28.352 0-30.72-22.944-30.72-51.2s2.368-51.2 30.72-51.2h214.976v-215.104c0-28.256 22.976-30.72 51.232-30.72 28.32 0 51.2 2.464 51.2 30.72v215.104h215.104c28.32 0 30.752 22.944 30.752 51.2s-2.432 51.2-30.752 51.2z" />
<glyph unicode="&#xe606;" glyph-name="pagination-left" d="M661.344 757.344c11.776 0 21.856-4.16 30.144-12.512 8.384-8.352 12.544-18.4 12.544-30.176 0-12-4.096-22.112-12.32-30.336l-268.672-268.32 268.672-268.672c8.224-8.192 12.32-18.304 12.32-30.304 0-11.776-4.16-21.792-12.544-30.016-8.32-8.224-18.368-12.352-30.144-12.32-12.032 0-22.112 4.096-30.336 12.32l-298.656 298.656c-8.224 8.672-12.32 18.784-12.32 30.336 0 11.328 4.096 21.344 12.32 30.016l298.656 298.656c8.416 8.416 18.56 12.64 30.336 12.672v0z" />
<glyph unicode="&#xe607;" glyph-name="pagination-down" d="M853.312 597.28c0-11.776-4.224-21.92-12.672-30.336l-298.656-298.624c-8.672-8.224-18.688-12.352-30.016-12.352-11.552 0-21.664 4.128-30.336 12.352l-298.656 298.624c-8.224 8.224-12.32 18.304-12.32 30.336-0.032 11.776 4.096 21.856 12.32 30.144 8.256 8.384 18.24 12.544 30.016 12.544 12 0 22.112-4.096 30.304-12.32l268.704-268.64 268.32 268.672c8.224 8.224 18.336 12.32 30.336 12.32 11.776 0 21.824-4.16 30.176-12.544 8.352-8.32 12.512-18.4 12.48-30.176v0z" />
<glyph unicode="&#xe609;" glyph-name="bullet-filled" d="M806.788 448c0-162.807-131.981-294.788-294.788-294.788s-294.788 131.981-294.788 294.788c0 162.807 131.981 294.788 294.788 294.788s294.788-131.981 294.788-294.788z" />
<glyph unicode="&#xe60a;" glyph-name="bullet-empty" d="M512 153.212c-162.807 0-294.788 131.981-294.788 294.788s131.981 294.788 294.788 294.788c162.807 0 294.788-131.981 294.788-294.788v0c0-162.807-131.981-294.788-294.788-294.788v0zM512 649.697c-111.394 0-201.697-90.303-201.697-201.697s90.303-201.697 201.697-201.697c111.394 0 201.697 90.303 201.697 201.697v0c-0.352 111.252-90.445 201.345-201.663 201.697h-0.034z" />
<glyph unicode="&#xe60e;" glyph-name="approved" d="M703.328 594.048c-102.496-99.456-257.664-247.872-285.184-268.768-13.472 10.144-57.792 53.024-97.12 92.832-21.6 20.224-59.456 20.224-81.056 0l-6.784-6.368 144.384-147.328c10.816-10.112 25.248-15.68 40.544-15.68s29.728 5.568 40.672 15.744l332.736 323.136-7.008 6.592c-21.536 20.256-59.264 20.384-81.184-0.16zM512.288 959.744c-282.176 0-511.744-229.568-511.744-511.776 0-282.144 229.568-511.712 511.744-511.712 282.112 0 511.712 229.568 511.712 511.712 0 282.208-229.6 511.776-511.712 511.776zM512.288 9.312c-241.856 0-438.656 196.8-438.656 438.656 0 241.888 196.8 438.688 438.656 438.688s438.624-196.8 438.624-438.688c0-241.856-196.8-438.656-438.624-438.656z" />
<glyph unicode="&#xe612;" glyph-name="hide" d="M841.248 889.088l-108.96-114.592c-25.6 14.176-53.792 26.4-84.768 36.352-43.904 14.112-89.088 21.152-135.52 21.152-36.448 0-72.224-4.512-107.328-13.504s-66.72-20.608-94.848-34.848c-28.128-14.272-55.552-31.52-82.336-51.84s-49.952-40.416-69.504-60.32-38.496-41.44-56.832-64.672c-18.336-23.2-33.12-43.328-44.32-60.32s-21.792-34.272-31.68-51.84c-9.92-17.568-16.192-29.184-18.848-34.848-2.656-5.696-4.768-10.176-6.336-13.504l10.016-20.992c6.88-14.24 17.6-32.608 32.16-55.008 14.592-22.432 31.808-47.264 51.68-74.496 19.872-27.264 44.448-54.432 73.664-81.504 5.696-5.28 12-9.92 17.856-14.976l-120.096-126.272 69.568-66.112 776 816-69.568 66.144zM208.832 293.536c-16.8 17.664-33.056 36.64-48.832 56.992s-28.32 37.792-37.664 52.32-18.112 29.024-26.336 43.488c8.224 14.656 17.024 29.312 26.336 44s21.888 32.288 37.664 52.832 32.064 39.776 48.832 57.664c16.768 17.92 36.672 36.064 59.68 54.496s46.56 34.144 70.656 47.168c24.064 13.024 51.136 23.616 81.152 31.84s60.576 12.32 91.68 12.32v0.192c31.136 0 61.696-4.096 91.68-12.32 24.384-6.656 46.272-15.328 66.752-25.088l-97.408-102.432c-18.88 7.424-39.072 11.648-61.024 11.648-47.104 0-87.328-16.672-120.672-50.016s-50.016-73.568-50.016-120.672c0-24.96 5.504-47.68 15.104-68.704l-112.768-118.56c-12.64 11.008-24.512 21.984-34.816 32.832zM502.080 532.448l-74.88-78.752c1.28 21.056 9.216 39.36 24.48 54.656 14.24 14.24 31.136 22.016 50.4 24.096zM572.32 387.712c-7.968-7.968-16.768-13.952-26.336-18.080l-81.152-85.312c14.976-4.192 30.496-7.040 47.168-7.040 47.136 0 87.328 16.672 120.672 50.016 33.312 33.312 50.016 73.568 50.016 120.672 0 19.776-3.616 38.080-9.504 55.424l-81.344-85.536c-4.16-11.008-10.496-21.152-19.52-30.144zM1014.016 469.28c-6.88 14.016-17.632 32.288-32.192 54.848s-31.776 47.488-51.68 74.848c-19.872 27.36-44.448 54.688-73.632 82.016-2.56 2.368-5.344 4.512-7.904 6.848l-58.496-61.504c8.928-8.224 17.44-16.416 25.088-24.512 16.736-17.792 33.056-36.896 48.8-57.344s28.32-38.016 37.664-52.672c9.344-14.688 18.112-29.248 26.336-43.68-8.224-14.432-16.992-28.992-26.336-43.68s-21.92-32.224-37.664-52.672-32.064-39.552-48.8-57.344c-16.8-17.824-36.672-35.872-59.68-54.176s-46.56-33.952-70.688-46.848c-24.096-12.896-51.136-23.456-81.12-31.648-30.016-8.256-60.576-12.352-91.68-12.352s-61.696 4.064-91.68 12.16c-19.392 5.248-37.12 11.872-54.048 19.136l-62.432-65.632c22.368-11.424 46.432-21.536 72.64-29.952 43.872-14.112 89.056-21.152 135.488-21.152 36.448 0.032 72.224 4.544 107.328 13.504s66.72 20.544 94.816 34.656c28.128 14.112 55.552 31.296 82.368 51.488 26.752 20.192 49.952 40.256 69.504 60.16s38.496 41.344 56.8 64.32 33.12 42.976 44.32 60c11.264 17.024 21.824 34.24 31.68 51.68 9.92 17.408 16.192 28.96 18.848 34.656 2.656 5.664 4.768 10.176 6.336 13.504l-9.984 21.344z" />
<glyph unicode="&#xe614;" glyph-name="show1" d="M512 832q69.664 0 135.488-21.152t115.488-55.008 93.504-74.848 73.664-82.016 51.68-74.848 32.16-54.848l10.016-21.344q-2.336-4.992-6.336-13.504t-18.848-34.656-31.68-51.68-44.32-60-56.832-64.32-69.504-60.16-82.336-51.488-94.848-34.656-107.328-13.504q-69.664 0-135.488 21.152t-115.488 54.848-93.504 74.336-73.664 81.504-51.68 74.496-32.16 55.008l-10.016 20.992q2.336 4.992 6.336 13.504t18.848 34.848 31.68 51.84 44.32 60.32 56.832 64.672 69.504 60.32 82.336 51.84 94.848 34.848 107.328 13.504zM512 746.656q-46.656 0-91.68-12.32t-81.152-31.84-70.656-47.168-59.68-54.496-48.832-57.664-37.664-52.832-26.336-44q12.32-21.664 26.336-43.488t37.664-52.32 48.832-56.992 59.68-53.824 70.656-46.656 81.152-31.488 91.68-12.16 91.68 12.32 81.152 31.68 70.656 46.848 59.68 54.176 48.832 57.344 37.664 52.672 26.336 43.68q-12.32 21.664-26.336 43.68t-37.664 52.672-48.832 57.344-59.68 54.176-70.656 46.848-81.152 31.68-91.68 12.32zM512 618.656q70.656 0 120.672-50.016t50.016-120.672-50.016-120.672-120.672-50.016-120.672 50.016-50.016 120.672 50.016 120.672 120.672 50.016zM512 533.344q-35.328 0-60.32-24.992t-24.992-60.32 24.992-60.32 60.32-24.992 60.32 24.992 24.992 60.32-24.992 60.32-60.32 24.992z" />
<glyph unicode="&#xe627;" glyph-name="track" d="M977.408 526.464l-81.408 108.576c-29.12 35.008-60.992 53.536-92.128 53.536h-155.968c-2.368 0-4.672-0.512-7.008-0.736v66.208c0 44.256-61.376 72.512-93.472 72.512h-467.936c-37.472 0-68-30.496-68-68v-511.488c0-37.824 33.184-70.976 70.976-70.976h69.984c14.336-55.872 64.704-97.472 125.024-97.472 60.288 0 110.656 41.6 124.992 97.472h170.464c14.016 0 27.040 4.288 37.856 11.552 10.976-7.072 23.68-11.424 37.12-11.552h11.456c14.368-55.872 64.736-97.472 125.024-97.472s110.656 41.6 125.024 97.472h30.944c37.824 0 71.008 33.152 71.008 70.976v187.52c0 43.072-30.080 86.464-33.952 91.872zM882.368 546.56l43.36-57.888c4.672-6.56 12.672-20.288 17.536-34.048h-178.144c-2.464 0.384-6.88 4.736-7.232 7.008v77.984c0 3.488 4.8 6.976 7.008 6.976h117.472zM277.472 142.624c-36.096 0-65.504 29.376-65.504 65.472 0 36.128 29.376 65.504 65.504 65.504s65.472-29.376 65.472-65.504c0-36.096-29.376-65.472-65.472-65.472zM576.896 244.096c0-2.112-1.856-4-3.968-4h-170.464c-14.336 55.904-64.704 97.504-124.992 97.504s-110.656-41.6-125.024-97.504h-69.888c-2.432 0.224-6.816 4.64-7.040 6.976v511.488c0 2.144 1.824 4 4 4h467.904c7.168-0.224 23.36-7.968 29.536-13.696v-504.768zM784.416 142.624c-36.128 0-65.504 29.376-65.504 65.472 0 36.128 29.376 65.504 65.504 65.504s65.504-29.376 65.504-65.504c0-36.096-29.376-65.472-65.504-65.472zM947.36 247.136c-0.224-2.432-4.64-6.848-7.008-7.040h-30.912c-14.336 55.904-64.704 97.504-125.024 97.504s-110.688-41.6-125.024-97.504h-11.2c-2.432 0.192-7.040 4.64-7.296 6.976v370.432c0.192 2.432 4.64 6.848 7.008 7.072h155.968c7.296 0 17.056-5.248 27.168-14.016h-66.112c-38.496 0-71.008-32.512-71.008-70.976v-77.984c0-37.152 33.856-70.976 71.008-70.976h182.464v-143.488z" />
<glyph unicode="&#xe633;" glyph-name="info" d="M473.424 950.869c163.243 12.766 291.311-52.036 375.984-129.246 84.611-77.158 155.881-187.83 166.844-336.048 12.1-163.55-54.79-294.554-129.246-375.984-81.539-89.185-189.753-152.872-338.381-164.494-153.458-11.998-287.221 45.852-373.652 126.896-90.118 84.526-154.396 183.666-166.844 336.037-13.221 161.792 48.065 291.442 124.547 375.996 74.547 82.409 190.714 155.113 340.747 166.844zM217.27 732.319c-67.618-67.618-116.406-161.997-115.143-291.385 1.257-127.943 52.764-218.738 122.197-286.697 71.037-69.541 172.868-115.792 291.391-115.143 125.559 0.683 216.673 52.167 286.692 122.192 68.335 68.346 120.309 163.868 119.848 291.396-0.222 58.971-15.525 119.324-37.598 166.849-61.759 132.949-192.415 238.364-378.334 237.34-132.517-0.734-225.087-60.587-289.052-124.553zM572.114 722.927c45.648 8.425 84.702-11.566 84.599-51.706-0.188-70.548-124.609-70.923-133.956-9.392-5.922 39.117 18.642 55.427 49.357 61.099zM503.967 243.536c45.084-14.029 66.469 55.142 98.697 63.454 3.681-38.508-21.811-57.56-56.4-84.605-31.943-24.98-63.169-43.736-112.788-37.592-24.212 2.987-56.502 18.438-58.749 47.002-1.377 17.545 16.384 58.505 23.495 77.551 22.812 61.042 45.716 116.918 68.153 178.586 3.681 10.143 12.419 23.945 4.699 35.248-46.313 2.372-65.803-54.767-96.353-68.147-5.126 42.672 27.409 62.071 63.448 86.949 27.688 19.109 59.398 34.532 84.594 37.598 37.308 4.528 73.216-15.371 77.557-44.646 3.618-24.405-12.447-54.033-21.151-77.551-18.66-50.415-36.028-93.702-54.056-143.349-8.545-23.541-21.072-45.591-21.146-70.497z" />
<glyph unicode="&#xe634;" glyph-name="more" d="M853.333 576c35.333 0 65.5-12.5 90.5-37.5s37.5-55.167 37.5-90.5-12.5-65.5-37.5-90.5-55.167-37.5-90.5-37.5-65.5 12.5-90.5 37.5-37.5 55.167-37.5 90.5 12.5 65.5 37.5 90.5 55.167 37.5 90.5 37.5zM170.667 576c35.333 0 65.5-12.5 90.5-37.5s37.5-55.167 37.5-90.5-12.5-65.5-37.5-90.5-55.167-37.5-90.5-37.5-65.5 12.5-90.5 37.5-37.5 55.167-37.5 90.5 12.5 65.5 37.5 90.5 55.167 37.5 90.5 37.5zM512 576c35.333 0 65.5-12.5 90.5-37.5s37.5-55.167 37.5-90.5-12.5-65.5-37.5-90.5-55.167-37.5-90.5-37.5-65.5 12.5-90.5 37.5-37.5 55.167-37.5 90.5 12.5 65.5 37.5 90.5 55.167 37.5 90.5 37.5z" />
<glyph unicode="&#xe639;" glyph-name="minus" d="M778.2 396.8c28.3 0 30.8 22.9 30.8 51.2s-2.4 51.2-30.8 51.2h-532.5c-28.4 0-30.7-22.9-30.7-51.2s2.4-51.2 30.7-51.2h532.5z" />
<glyph unicode="&#xe640;" glyph-name="key-down" d="M512 874.667q17.664 0 30.165-12.501t12.501-30.165v-665.003l225.664 226.005q12.331 12.331 30.336 12.331 18.347 0 30.507-12.16t12.16-30.507q0-18.005-12.331-30.336l-298.667-298.667q-12.331-12.331-30.336-12.331t-30.336 12.331l-298.667 298.667q-12.331 12.331-12.331 30.336 0 18.347 12.16 30.507t30.507 12.16q18.005 0 30.336-12.331l225.664-226.005v665.003q0 17.664 12.501 30.165t30.165 12.501z" />
<glyph unicode="&#xe641;" glyph-name="key-left" d="M938.667 448q0-17.664-12.501-30.165t-30.165-12.501h-665.003l226.005-225.664q12.331-12.331 12.331-30.336 0-18.347-12.16-30.507t-30.507-12.16q-18.005 0-30.336 12.331l-298.667 298.667q-12.331 12.331-12.331 30.336t12.331 30.336l298.667 298.667q12.331 12.331 30.336 12.331 18.347 0 30.507-12.16t12.16-30.507q0-18.005-12.331-30.336l-226.005-225.664h665.003q17.664 0 30.165-12.501t12.501-30.165z" />
<glyph unicode="&#xe642;" glyph-name="key-right" d="M597.333 789.333q18.005 0 30.336-12.331l298.667-298.667q12.331-12.331 12.331-30.336t-12.331-30.336l-298.667-298.667q-12.331-12.331-30.336-12.331-18.347 0-30.507 12.16t-12.16 30.507q0 18.005 12.331 30.336l226.005 225.664h-665.003q-17.664 0-30.165 12.501t-12.501 30.165 12.501 30.165 30.165 12.501h665.003l-226.005 225.664q-12.331 12.331-12.331 30.336 0 18.347 12.16 30.507t30.507 12.16z" />
<glyph unicode="&#xe643;" glyph-name="key-up" d="M512 874.667q18.005 0 30.336-12.331l298.667-298.667q12.331-12.331 12.331-30.336 0-18.347-12.16-30.507t-30.507-12.16q-18.005 0-30.336 12.331l-225.664 226.005v-665.003q0-17.664-12.501-30.165t-30.165-12.501-30.165 12.501-12.501 30.165v665.003l-225.664-226.005q-12.331-12.331-30.336-12.331-18.347 0-30.507 12.16t-12.16 30.507q0 18.005 12.331 30.336l298.667 298.667q12.331 12.331 30.336 12.331z" />
<glyph unicode="&#xe64b;" glyph-name="logout" d="M710.3 723.4c9.6 0 17.6-3.3 24.2-9.8l238.1-238.1c6.6-6.6 9.8-14.6 9.8-24.2s-3.3-17.6-9.8-24.2l-238.2-238.1c-6.6-6.6-14.6-9.8-24.2-9.8-9.8 0-17.9 3.2-24.3 9.7s-9.7 14.6-9.7 24.3c0 9.6 3.3 17.6 9.8 24.2l180.2 179.9h-565.1c-9.4 0-17.4 3.3-24 10-6.6 6.6-10 14.7-10 24 0 9.4 3.3 17.4 10 24s14.7 10 24 10h565.1l-180.1 179.9c-6.6 6.6-9.8 14.6-9.8 24.2 0 9.8 3.2 17.9 9.7 24.3s14.5 9.7 24.3 9.7v0zM533.8 48.1h-352.9c-25.7 0-46.6 20.9-46.6 46.6v705.4c0 25.7 20.9 46.6 46.6 46.6h352.9c22.3 0 40.3 18.1 40.3 40.3v0c0 22.3-18.1 40.3-40.3 40.3h-352.9c-70.3 0-127.3-57-127.3-127.3v-705.4c0-70.3 57-127.3 127.3-127.3h352.9c22.3 0 40.3 18.1 40.3 40.3v0c0 22.5-18 40.5-40.3 40.5z" />
<glyph unicode="&#xe64d;" glyph-name="pagination-up" d="M853.312 298.72c0 11.776-4.224 21.92-12.672 30.336l-298.656 298.624c-8.672 8.224-18.688 12.352-30.016 12.352-11.552 0-21.664-4.128-30.336-12.352l-298.656-298.624c-8.224-8.224-12.32-18.304-12.32-30.336-0.032-11.776 4.096-21.856 12.32-30.144 8.256-8.384 18.24-12.544 30.016-12.544 12 0 22.112 4.096 30.304 12.32l268.704 268.64 268.32-268.672c8.224-8.224 18.336-12.32 30.336-12.32 11.776 0 21.824 4.16 30.176 12.544 8.352 8.32 12.512 18.4 12.48 30.176v0z" />
<glyph unicode="&#xe664;" glyph-name="minus-circle-thin" d="M1003.725 552.243c-6.554 32.358-16.589 64.307-29.696 95.027-26.214 61.645-62.259 115.507-106.701 159.949-44.646 44.646-98.304 80.486-159.949 106.906-61.85 26.419-127.59 39.731-195.379 39.731s-133.53-13.312-194.97-39.731c-61.44-26.419-115.507-62.259-159.949-106.906-44.646-44.442-80.486-98.304-106.906-159.949-26.419-61.44-39.731-127.181-39.731-194.97 0-33.997 3.277-67.584 9.83-99.738 6.554-32.358 16.589-64.307 29.696-95.232 26.214-61.44 62.259-115.302 106.906-159.949s98.304-80.486 159.949-106.906c61.645-26.419 127.181-39.731 194.97-39.731 33.997 0 67.379 3.277 99.738 10.035 32.358 6.554 64.307 16.589 95.232 29.696 61.645 26.214 115.507 62.259 159.949 106.701 22.323 22.323 42.598 47.104 60.211 73.523 17.818 26.624 33.382 55.706 46.49 86.63 26.419 61.44 39.731 126.976 39.731 194.97 0.41 33.997-3.072 67.584-9.421 99.942zM920.371 279.859c-23.347-54.477-55.296-101.99-94.618-141.312s-87.040-71.27-141.517-94.618c-54.682-23.347-112.845-35.226-172.442-35.226s-117.76 11.878-172.442 35.226c-54.477 23.347-101.99 55.091-141.312 94.618-39.322 39.322-71.066 86.835-94.618 141.312-23.347 54.682-35.43 112.64-35.226 172.442 0 59.802 11.878 117.965 35.226 172.442 23.347 54.272 55.296 101.99 94.618 141.312s86.835 71.066 141.312 94.413c54.477 23.347 112.64 35.226 172.442 35.226 60.006 0 117.965-11.878 172.442-35.226s101.99-55.296 141.312-94.618 71.066-86.835 94.618-141.312c23.347-54.477 35.226-112.64 35.226-172.442 0.41-59.392-11.469-117.555-35.021-172.237zM701.030 481.178h-378.061c-8.192 0-14.746-2.662-20.48-8.397s-8.397-12.288-8.397-20.275 2.662-14.541 8.397-20.275c5.734-5.734 12.288-8.602 20.275-8.602h7.782v0.41h370.483v-0.41c8.192 0 14.541 2.662 20.48 8.602 5.734 5.734 8.397 12.288 8.397 20.275 0 8.192-2.458 14.746-8.397 20.48-5.939 5.53-12.288 8.192-20.48 8.192z" />
<glyph unicode="&#xe665;" glyph-name="plus-circleithin" d="M1003.93 547.123c-6.554 31.949-16.384 63.693-29.491 94.208-26.010 61.235-61.645 114.483-105.882 158.72s-97.69 79.872-158.72 106.086-126.157 39.322-193.331 39.322c-67.379 0-132.301-13.312-193.331-39.322-61.235-26.214-114.688-61.85-158.925-106.086s-79.872-97.69-106.086-158.72c-26.214-61.030-39.322-126.157-39.322-193.331 0-33.587 3.277-66.97 9.83-98.918s16.384-63.693 29.491-94.413c26.010-61.030 61.645-114.278 106.086-158.72 44.237-44.237 97.69-79.872 158.72-106.086s126.157-39.322 193.331-39.322c33.587 0 66.97 3.277 98.918 9.83s63.693 16.384 94.413 29.491c61.030 26.010 114.483 61.645 158.72 105.882 22.118 22.118 42.189 46.694 59.802 72.909 17.613 26.419 33.178 55.296 46.080 85.811 26.214 60.826 39.322 125.952 39.322 193.331 0.205 33.997-3.072 67.174-9.626 99.328zM921.395 276.992c-23.142-53.862-54.682-101.171-93.798-140.288s-86.221-70.656-140.288-93.798c-54.272-23.142-111.821-35.021-171.008-35.021s-116.736 11.674-171.008 35.021c-53.862 23.142-101.171 54.682-140.288 93.798-38.912 38.912-70.451 86.221-93.798 140.288-23.347 54.272-35.021 111.821-35.021 171.008 0 59.392 11.878 116.941 35.021 171.008 23.142 53.862 54.682 101.171 93.798 140.288 38.912 38.912 86.221 70.451 140.288 93.594s111.616 35.021 171.008 35.021c59.597 0 117.146-11.674 171.008-35.021 54.067-23.142 101.376-54.682 140.288-93.594s70.451-86.221 93.798-140.288c23.142-54.067 35.021-111.616 35.021-171.008 0-59.187-11.878-116.736-35.021-171.008zM703.898 476.672h-158.925v158.925c0 7.987-2.662 14.541-8.397 20.275s-12.083 8.397-20.275 8.397c-8.192 0-14.541-2.662-20.275-8.397s-8.397-12.083-8.397-20.275v-158.925h-158.72c-7.987 0-14.541-2.662-20.275-8.397s-8.397-12.083-8.397-20.275c0-7.987 2.662-14.541 8.397-20.275s12.083-8.397 20.275-8.397h158.925v-158.925c0-7.987 2.662-14.541 8.397-20.275v0 0c5.734-5.734 12.083-8.397 20.275-8.397s14.541 2.662 20.275 8.397v0 0c5.734 5.734 8.397 12.083 8.397 20.070v159.13h158.925c7.987 0 14.541 2.662 20.275 8.397s8.397 12.083 8.397 20.275c0 7.987-2.662 14.541-8.602 20.275s-12.288 8.397-20.275 8.397z" />
<glyph unicode="&#xe669;" glyph-name="general-settings-thin" d="M948.907 55.467c-3.413 20.48-10.24 40.96-13.653 51.2 0 3.413 0 6.827-3.413 10.24 0 0-3.413 0-6.827 0h-20.48v477.867c0 13.653 10.24 20.48 17.067 27.307 47.787 20.48 71.68 54.613 75.093 102.4 0 0 0 3.413 0 3.413 0 3.413-3.413 6.827-3.413 10.24-10.24 27.307-17.067 51.2-23.893 75.093-10.24 37.547-23.893 71.68-34.133 109.227-3.413 13.653-10.24 20.48-23.893 20.48h-808.96c-13.653 0-20.48-6.827-23.893-20.48-10.24-30.72-20.48-61.44-30.72-92.16s-34.133-105.813-34.133-105.813c0 0 3.413-13.653 3.413-17.067 6.827-37.547 20.48-61.44 71.68-92.16 6.827-3.413 13.653-10.24 13.653-23.893v-477.867h-13.653c-3.413 0-10.24 0-10.24 0s0-3.413 0-10.24c-10.24-37.547-27.307-112.64-34.133-146.773 0-3.413 0-3.413 0-6.827 0 0 3.413-3.413 6.827-3.413h911.36c3.413 0 6.827 0 6.827 3.413 0 0 0 3.413 0 6.827-3.413 23.893-10.24 61.44-20.48 98.987zM98.987 663.040c-13.653 3.413-23.893 17.067-34.133 30.72-6.827 17.067-10.24 37.547-3.413 51.2 20.48 51.2 37.547 95.573 47.787 136.533l3.413 6.827c3.413 6.827 10.24 17.067 23.893 10.24h754.347c6.827 0 20.48-6.827 23.893-17.067 10.24-23.893 17.067-51.2 27.307-75.093 6.827-20.48 13.653-40.96 20.48-61.44 3.413-13.653 3.413-34.133-3.413-47.787-6.827-17.067-20.48-27.307-34.133-34.133-23.893-10.24-44.373-10.24-68.267 0s-40.96 34.133-40.96 61.44v58.027h-37.547c-3.413 0-3.413 0-3.413 0s0 0-3.413-3.413v-51.2c0-47.787-27.307-75.093-75.093-75.093-6.827 0-10.24 0-13.653 3.413-3.413 0-3.413 0-6.827 0h-3.413c-27.307 10.24-44.373 37.547-44.373 64.853v61.44h-34.133v-54.613c0-47.787-27.307-75.093-75.093-75.093s-75.093 27.307-75.093 75.093v44.373c0 3.413 0 10.24 0 10.24-3.413 0-6.827 0-10.24 0h-27.307v-51.2c3.413-20.48-3.413-40.96-17.067-58.027-13.653-13.653-30.72-23.893-54.613-23.893-3.413 0-6.827 0-10.24 0-40.96 6.827-68.267 34.133-68.267 71.68v47.787c0 6.827 0 13.653 0 17.067 0 0-6.827 0-13.653 0h-23.893v-3.413c-3.413-10.24-3.413-23.893-3.413-34.133 0-13.653 0-23.893-3.413-37.547-3.413-30.72-34.133-51.2-64.853-51.2-17.067 0-30.72 0-47.787 3.413zM870.4 598.187v-477.867l-337.92-3.413v477.867c0 6.827 0 17.067 13.653 20.48 27.307 10.24 44.373 34.133 47.787 37.547l6.827 6.827 6.827-6.827c30.72-30.72 58.027-44.373 92.16-44.373s61.44 13.653 85.333 44.373l6.827 6.827 17.067-17.067c10.24-10.24 27.307-20.48 44.373-27.307 10.24 0 17.067-6.827 17.067-17.067zM481.28 372.907l-327.68 3.413v225.28c0 10.24 6.827 13.653 10.24 20.48l3.413 3.413c20.48 10.24 37.547 13.653 54.613 37.547l6.827 6.827 6.827-6.827c27.307-30.72 54.613-44.373 85.333-44.373s61.44 13.653 88.747 40.96l6.827 6.827 10.24-10.24c17.067-10.24 30.72-23.893 51.2-30.72l3.413-3.413c3.413 0 6.827-6.827 6.827-17.067v-228.693l-6.827-3.413zM491.52 328.533v-208.213h-146.773v208.213h146.773zM303.787 328.533v-208.213h-146.773v208.213h146.773zM98.987-5.973l3.413 13.653c3.413 20.48 10.24 37.547 17.067 61.44 0 6.827 3.413 13.653 17.067 13.653h754.347c13.653 0 23.893-10.24 23.893-23.893l17.067-61.44h-832.853zM651.947 372.907c0-15.081-12.226-27.307-27.307-27.307s-27.307 12.226-27.307 27.307c0 15.081 12.226 27.307 27.307 27.307s27.307-12.226 27.307-27.307z" />
<glyph unicode="&#xe678;" glyph-name="double-arrow" d="M535.893-12.8l447.147 447.147c6.827 6.827 10.24 17.067 10.24 27.307s-3.413 20.48-10.24 27.307c-6.827 6.827-17.067 10.24-27.307 10.24s-20.48-3.413-27.307-10.24l-423.253-423.253-423.253 423.253c-6.827 6.827-17.067 10.24-27.307 10.24s-20.48-3.413-27.307-10.24c-6.827-6.827-10.24-17.067-10.24-27.307v0c0-10.24 3.413-20.48 10.24-27.307l450.56-450.56c6.827-6.827 17.067-10.24 27.307-10.24 13.653 0 23.893 3.413 30.72 13.653zM508.587 407.040c10.24 0 20.48 3.413 27.307 10.24l450.56 450.56c6.827 6.827 10.24 17.067 10.24 27.307s-3.413 20.48-10.24 27.307c-6.827 6.827-17.067 10.24-27.307 10.24s-20.48-3.413-27.307-10.24l-423.253-423.253-423.253 423.253c-6.827 6.827-17.067 10.24-27.307 10.24s-20.48-3.413-27.307-10.24c-6.827-6.827-10.24-17.067-10.24-27.307v0c0-10.24 3.413-20.48 10.24-27.307l450.56-450.56c10.24-6.827 17.067-10.24 27.307-10.24z" />
<glyph unicode="&#xe679;" glyph-name="double-arrowUp" d="M488.107 908.8l-447.147-447.147c-6.827-6.827-10.24-17.067-10.24-27.307s3.413-20.48 10.24-27.307c6.827-6.827 17.067-10.24 27.307-10.24s20.48 3.413 27.307 10.24l423.253 423.253 423.253-423.253c6.827-6.827 17.067-10.24 27.307-10.24s20.48 3.413 27.307 10.24c6.827 6.827 10.24 17.067 10.24 27.307v0c0 10.24-3.413 20.48-10.24 27.307l-450.56 450.56c-6.827 6.827-17.067 10.24-27.307 10.24-13.653 0-23.893-3.413-30.72-13.653zM515.413 488.96c-10.24 0-20.48-3.413-27.307-10.24l-450.56-450.56c-6.827-6.827-10.24-17.067-10.24-27.307s3.413-20.48 10.24-27.307c6.827-6.827 17.067-10.24 27.307-10.24s20.48 3.413 27.307 10.24l423.253 423.253 423.253-423.253c6.827-6.827 17.067-10.24 27.307-10.24s20.48 3.413 27.307 10.24c6.827 6.827 10.24 17.067 10.24 27.307v0c0 10.24-3.413 20.48-10.24 27.307l-450.56 450.56c-10.24 6.827-17.067 10.24-27.307 10.24z" />
<glyph unicode="&#xe67a;" glyph-name="download" d="M441.251 153.212c17.797-18.765 42.909-30.441 70.749-30.441s52.952 11.676 70.708 30.398l0.041 0.043 286.099 298.512c8.411 8.421 13.612 20.049 13.612 32.892s-5.202 24.471-13.613 32.893v0c-7.961 7.898-18.926 12.779-31.030 12.779s-23.069-4.881-31.033-12.782l0.003 0.003-248.242-257.552v632.398c0 25.021-20.283 45.304-45.304 45.304s-45.304-20.283-45.304-45.304v0-632.398l-255.069 261.896c-8.026 7.754-18.97 12.532-31.030 12.532s-23.004-4.778-31.043-12.544l0.013 0.012c-8.124-8.549-13.121-20.137-13.121-32.892s4.997-24.343 13.141-32.913l-0.019 0.020zM963.181 329.464c-24.76-0.34-44.701-20.492-44.701-45.3 0-0.438 0.006-0.874 0.019-1.309l-0.001 0.064v-93.091c0.008-0.557 0.013-1.215 0.013-1.874 0-75.441-60.634-136.719-135.827-137.761l-0.098-0.001h-541.168c-75.291 1.043-135.925 62.322-135.925 137.762 0 0.659 0.005 1.317 0.014 1.974l-0.001-0.1v87.505c0.070 0.947 0.109 2.051 0.109 3.164 0 24.529-19.23 44.566-43.437 45.859l-0.115 0.005c-0.216 0.004-0.471 0.006-0.726 0.006-25.364 0-45.925-20.561-45.925-45.925 0-1.094 0.038-2.179 0.113-3.254l-0.008 0.145v-89.988c-0.014-0.932-0.021-2.031-0.021-3.133 0-125.516 100.707-227.511 225.727-229.592l0.195-0.003h541.168c125.215 2.083 225.922 104.078 225.922 229.594 0 1.101-0.008 2.201-0.023 3.299l0.002-0.166v93.091c0.067 0.929 0.105 2.013 0.105 3.106 0 25.182-20.268 45.631-45.382 45.922h-0.028z" />
<glyph unicode="&#xe691;" glyph-name="web" d="M512 943.446c-273.941 0-495.997-221.811-495.997-495.405 0-273.657 222.058-495.488 495.997-495.488 273.924 0 495.997 221.827 495.997 495.488 0 273.594-222.076 495.405-495.997 495.405zM448.524 905.468c-44.855-46.624-82.769-99.892-112.426-158.044-39.533 16.32-76.218 37.958-109.352 64.018 62.845 49.251 138.765 82.632 221.778 94.025zM200.958 789.521c36.407-29.397 76.996-53.7 120.843-71.954-34.77-77.64-55.138-163.035-57.352-253.037h-214.568c4.579 128.847 61.95 244.049 151.080 324.996zM49.876 431.507h214.552c2.247-91.212 23.113-177.733 58.743-256.184-42.557-18.749-82.007-43.368-117.305-73.028-91.859 81.197-151.33 198.022-155.992 329.212zM231.958 80.703c32.008 26.187 67.487 47.996 105.714 64.71 29.413-56.875 66.729-109.039 110.757-154.833-80.73 11.11-154.67 43.085-216.472 90.122zM495.466-9.155c-51.104 47.931-94.108 104.307-126.909 166.839 40.060 14.152 82.632 22.636 126.909 24.833v-191.672zM495.466 215.797c-49.518-2.331-97.099-11.889-141.707-28.023-34.11 74.549-54.018 156.919-56.28 243.752h197.986v-215.727zM495.466 464.541h-197.986c2.232 85.907 21.792 167.416 55.239 241.352 45.033-15.309 92.918-24.287 142.733-25.89v-215.462h0.015zM495.466 712.987c-44.706 1.587-87.693 9.49-128.252 22.933 32.949 63.52 76.463 120.746 128.252 169.316v-192.248zM974.125 464.541h-214.57c-2.25 89.925-22.863 175.252-58.033 252.695 44.13 18.284 84.93 42.805 121.551 72.383 89.131-80.982 146.466-196.251 151.049-325.080zM797.167 811.446c-33.367-26.241-70.297-48.047-110.129-64.431-30.338 58.627-69.176 112.212-115.171 158.937 84.401-10.895 161.547-44.575 225.299-94.504zM528.534 902.028c51.302-47.779 94.451-103.995 127.289-166.408-40.276-13.244-82.933-21.045-127.289-22.632v189.043zM528.534 679.983c49.583 1.621 97.217 10.498 142.037 25.66 33.873-73.737 53.667-155.265 55.932-241.124h-197.971v215.462zM528.534 431.507h197.986c-2.25-85.427-21.89-166.541-55.453-240.033-45.003 15.060-92.8 23.742-142.534 24.866v215.163zM528.534-5.98v189.041c44.525-1.038 87.359-8.564 127.819-21.657-32.901-62.812-76.268-119.339-127.819-167.386zM571.801-9.933c46.296 47.005 85.359 101.017 115.799 160.093 39.98-16.299 77.012-38.274 110.508-64.778-63.968-50.359-141.458-84.353-226.308-95.316zM823.985 107.191c-36.737 29.876-77.623 54.659-121.899 72.913 34.835 77.111 55.237 161.99 57.486 251.421h214.553c-4.565-128.495-61.521-243.419-150.141-324.334z" />
<glyph unicode="&#xe696;" glyph-name="pagination-right" d="M362.72 757.312c11.776 0 21.92-4.224 30.336-12.672l298.624-298.656c8.224-8.672 12.352-18.688 12.352-30.016 0-11.552-4.128-21.664-12.352-30.336l-298.624-298.656c-8.224-8.224-18.304-12.32-30.336-12.32-11.776-0.032-21.856 4.096-30.144 12.32-8.384 8.256-12.544 18.24-12.544 30.016 0 12 4.096 22.112 12.32 30.304l268.64 268.704-268.672 268.32c-8.224 8.224-12.32 18.336-12.32 30.336 0 11.776 4.16 21.824 12.544 30.176 8.32 8.352 18.4 12.512 30.176 12.48v0z" />
<glyph unicode="&#xe810;" glyph-name="telephone60" d="M987.635 158.918l-153.804 153.809c-30.637 30.512-81.366 29.584-113.074-2.127l-77.489-77.489c-4.879 2.703-9.967 5.519-15.279 8.525-48.944 27.12-115.888 64.258-186.386 134.8-70.673 70.673-107.89 137.757-135.056 186.706-2.895 5.199-5.617 10.191-8.335 14.927l77.563 77.531c31.76 31.76 32.636 82.481 2.063 113.074l-153.809 153.841c-30.558 30.558-81.307 29.623-113.074-2.127l-43.344-43.6 1.199-1.167c-14.543-18.543-26.701-39.945-35.725-63-8.335-21.967-13.519-42.928-15.902-63.891-20.303-168.369 56.624-322.227 265.425-531.063 288.599-288.594 521.206-266.802 531.255-265.728 21.871 2.607 42.793 7.823 64.113 16.111 22.863 8.943 44.24 21.071 62.769 35.568l0.943-0.815 43.92 42.992c31.696 31.76 32.592 82.481 2.031 113.138zM951.412 79.95l-19.343-19.311-7.695-7.407c-12.143-11.727-33.143-28.208-63.825-40.208-17.423-6.703-34.583-11.023-52.061-13.103-2.191-0.207-220.979-18.871-491.736 251.857-230.222 230.222-267.122 362.866-251.653 491.352 1.935 17.039 6.216 34.16 13.039 52.068 12.111 30.864 28.565 51.846 40.208 64.002l26.768 27.024c12.894 12.936 33.008 13.908 44.787 2.127l153.804-153.804c11.759-11.791 10.831-31.917-2.063-44.88l-103.882-103.762 9.583-16.143c5.327-8.992 10.959-19.060 16.975-30.029 28.565-51.526 67.647-122.064 143.152-197.49 75.313-75.345 145.713-114.406 197.106-142.896 11.090-6.127 21.231-11.791 30.322-17.199l16.175-9.583 103.794 103.85c12.943 12.894 33.133 13.839 44.912 2.095l153.713-153.762c11.759-11.791 10.831-31.888-2.095-44.816z" />
<glyph unicode="&#xe813;" glyph-name="close-thin" d="M203.583 219.947c0 0.484 0 1.129 0 1.61 0.967 0.804 2.092 1.61 3.061 2.577 76.016 76.016 152.032 152.032 227.887 227.887 1.448 1.448 2.737 3.221 4.187 4.831-1.61 1.773-2.9 3.221-4.187 4.509-76.016 76.016-152.032 152.032-227.887 227.887-0.967 0.967-2.092 1.773-3.061 2.577 0 0.484 0 1.129 0 1.61 2.417 2.092 5.154 4.025 7.408 6.282 16.909 17.073 33.658 34.302 50.408 51.536 0.484 0 1.129 0 1.61 0 0.804-0.967 1.61-2.092 2.577-3.061 76.016-76.016 152.032-152.032 227.887-227.887 1.448-1.448 3.221-2.737 4.831-4.187 1.773 1.61 3.221 2.9 4.509 4.187 76.016 76.016 152.032 152.032 227.887 228.053 0.967 0.967 1.773 2.092 2.577 3.061 0.484 0 1.129 0 1.61 0 2.092-2.417 4.025-5.154 6.282-7.408 17.073-16.909 34.302-33.658 51.536-50.408 0-0.484 0-1.129 0-1.61-0.967-0.804-2.092-1.61-3.061-2.577-76.016-76.016-152.032-151.871-227.887-227.887-1.448-1.448-2.737-3.221-4.187-4.831 1.61-1.773 2.9-3.221 4.187-4.509 76.016-76.016 152.032-152.032 228.053-227.887 0.967-0.967 2.092-1.773 3.061-2.577 0-0.484 0-1.129 0-1.61-6.442-6.121-13.206-12.080-19.486-18.522-12.884-13.044-25.448-26.252-38.333-39.296-0.484 0-1.129 0-1.61 0-0.804 0.967-1.61 2.092-2.577 3.061-76.016 76.016-151.871 152.032-227.887 227.887-1.448 1.448-3.221 2.737-4.831 4.187-1.773-1.61-3.221-2.9-4.509-4.187-76.016-76.016-152.032-152.032-227.887-227.887-0.967-0.967-1.773-2.092-2.577-3.061-0.484 0-1.129 0-1.61 0-1.773 2.092-3.221 4.35-5.154 6.121-17.553 17.234-35.271 34.302-52.824 51.536z" />
<glyph unicode="&#xe900;" glyph-name="user" d="M512 421.888c104.738 0 189.645 84.907 189.645 189.645s-84.907 189.645-189.645 189.645c-104.63 0-189.47-84.732-189.645-189.321v-0.017c0-0.031 0-0.067 0-0.103 0-104.779 84.882-189.733 189.634-189.849h0.011zM512 954.47c-279.741-0.117-506.47-226.918-506.47-506.675 0-279.829 226.846-506.675 506.675-506.675s506.675 226.846 506.675 506.675c0 0.072 0 0.144 0 0.216v-0.012c-0.582 279.626-227.223 506.122-506.847 506.47h-0.033zM803.328 111.104c-40.96 166.195-155.955 286.72-291.328 286.72s-250.573-120.115-291.328-286.72c-94.624 82.137-154.112 202.603-154.112 336.964 0 246.010 199.43 445.44 445.44 445.44s445.44-199.43 445.44-445.44c0-134.361-59.488-254.827-153.563-336.498l-0.549-0.466z" />
<glyph unicode="&#xe901;" glyph-name="static-page" d="M511.998-64c-136.76 0-265.335 53.259-362.037 149.963-96.704 96.704-149.961 225.277-149.961 362.039s53.256 265.33 149.961 362.035 225.277 149.961 362.037 149.961 265.335-53.256 362.039-149.961c96.704-96.702 149.963-225.277 149.963-362.037s-53.259-265.332-149.963-362.039c-96.704-96.702-225.279-149.961-362.039-149.961zM511.998 916.25c-125.075 0-242.662-48.707-331.103-137.147s-137.147-206.030-137.147-331.101c0-125.075 48.707-242.662 137.147-331.105 88.441-88.441 206.028-137.147 331.103-137.147s242.662 48.709 331.105 137.147c88.441 88.443 137.147 206.028 137.147 331.105 0 125.075-48.709 242.662-137.147 331.103-88.443 88.438-206.028 137.145-331.105 137.145zM452.227 555.589h95.635v-382.537h-95.635v382.537zM452.227 699.038h95.635v-95.635h-95.635v95.635z" />
<glyph unicode="&#xe902;" glyph-name="share" d="M776.192 530.944c-82.944 0-151.552 67.584-151.552 151.552s67.584 151.552 151.552 151.552 150.528-68.608 150.528-151.552-67.584-151.552-150.528-151.552zM776.192 771.584c-49.152 0-90.112-39.936-90.112-90.112s39.936-90.112 90.112-90.112 90.112 39.936 90.112 90.112-40.96 90.112-90.112 90.112zM776.192-9.728c-82.944 0-151.552 67.584-151.552 151.552s67.584 151.552 151.552 151.552 151.552-67.584 151.552-151.552-68.608-151.552-151.552-151.552zM776.192 230.912c-49.152 0-90.112-39.936-90.112-90.112s39.936-90.112 90.112-90.112 90.112 39.936 90.112 90.112-40.96 90.112-90.112 90.112zM210.944 260.608c-82.944 0-151.552 67.584-151.552 151.552s67.584 151.552 151.552 151.552 150.528-67.584 150.528-151.552-67.584-151.552-150.528-151.552zM210.944 501.248c-49.152 0-90.112-39.936-90.112-90.112s39.936-90.112 90.112-90.112 90.112 39.936 90.112 90.112-40.96 90.112-90.112 90.112zM304.997 496.137l357.158 164.482 25.7-55.806-357.158-164.482-25.7 55.806zM304.699 305.826l25.706 55.806 357.158-164.522-25.706-55.806-357.158 164.522z" />
<glyph unicode="&#xe903;" glyph-name="whatsapp" d="M517.12 921.088c-266.24 0-482.304-216.064-482.304-482.304 0-93.184 26.624-183.296 75.776-260.096l12.288-18.432-47.104-166.912 172.032 44.032 17.408-11.264c75.776-46.080 161.792-70.656 250.88-70.656 266.24 0 482.304 216.064 482.304 482.304s-215.040 483.328-481.28 483.328zM813.056 290.304l-6.144-27.648c-7.168-31.744-25.6-59.392-53.248-76.8-34.816-22.528-78.848-32.768-136.192-16.384-176.128 50.176-276.48 166.912-329.728 239.616s-74.752 146.432-60.416 205.824c9.216 39.936 37.888 70.656 56.32 87.040 9.216 8.192 20.48 11.264 32.768 11.264l37.888-2.048c7.168 0 14.336-5.12 17.408-12.288l55.296-129.024c3.072-7.168 2.048-14.336-3.072-20.48l-48.128-55.296c-4.096-4.096-4.096-11.264-2.048-16.384 61.44-121.856 176.128-169.984 210.944-182.272 6.144-2.048 12.288 0 16.384 5.12l50.176 64.512c5.12 7.168 15.36 9.216 23.552 6.144l126.976-58.368c8.192-4.096 13.312-13.312 11.264-22.528z" />
<glyph unicode="&#xe904;" glyph-name="backNew" d="M988.16 508.416h-732.16l335.872 335.872-83.968 83.968-480.256-480.256 480.256-480.256 83.968 83.968-335.872 335.872h732.16v120.832z" />
<glyph unicode="&#xe905;" glyph-name="stopwatch" d="M400.7 944.2v0 0zM751.574 804.809l63.568 63.568 158.956-158.956-63.568-63.568-158.956 158.956zM891.8 502.2c-0.2 0.7-0.5 1.3-0.7 2-44 116.3-140.1 207-259.9 243.4 0 0-0.1 0-0.1 0-1.1 0.3-2.3 0.7-3.4 1-1.2 0.3-2.3 0.7-3.5 1-0.1 0-0.2 0-0.2 0.1-2.2 0.6-4.4 1.2-6.6 1.8-19.4 5.2-39.3 9-59.7 11.3v91.6h67.9v89.9h-224.8v-89.9h67v-91.6c-201.5-22.5-358.8-193.9-358.8-401.8 0-28.4 3.7-58.6 10.9-88.8 6.4-28.5 15.9-55.9 28.1-81.8 19.3-42.3 45.4-81.5 77.3-112.4 5.8-5.6 11.8-11 18.1-16.3 57.1-51.4 128.9-86.8 208.3-99 21.2-4.1 42-6.2 61.8-6.2 95.5 0 182.6 33.7 251.9 89l4.7 4.7c19.9 16.4 38.2 34.7 54.6 54.6l4.3 4.3c20.9 26.6 38.7 56.1 52.8 87.6 0.6 1.4 1.3 2.8 1.9 4.3 0.3 0.7 0.6 1.3 0.9 2 1 2.3 1.9 4.5 2.8 6.8 0 0 0 0 0 0.1 2.1 5.2 4.1 10.4 6 15.6 0 0.1 0.1 0.2 0.1 0.3 0.9 2.5 1.7 5 2.6 7.4 0.1 0.4 0.3 0.8 0.4 1.3 0.6 1.9 1.3 3.9 1.9 5.8 0.4 1.4 0.9 2.8 1.3 4.2 0.3 0.8 0.5 1.7 0.8 2.5 10.8 36.3 16.7 74.6 16.7 114.1 0 48.9-8.7 95.7-24.6 139.1-0.3 0.6-0.6 1.3-0.8 2zM512.6 47.3c-173.2 0-314.6 140.5-314.6 314.7s140.5 314.7 314.7 314.7 314.6-140.6 314.6-314.7-140.5-314.7-314.7-314.7zM467.7 585.8h89v-247.2h-89v247.2z" />
<glyph unicode="&#xe906;" glyph-name="bookAtable" d="M289.202 459.171h-138.395l-45.304 348.16c-0.748 24.436-20.736 43.961-45.284 43.961-25.021 0-45.304-20.283-45.304-45.304 0-3.707 0.445-7.31 1.285-10.758l-0.064 0.31 47.787-372.364c-0.773-2.619-1.426-5.773-1.831-9.005l-0.031-0.304c0.082-5.608 1.215-10.928 3.208-15.805l-0.105 0.29-24.204-300.373c-0.074-0.972-0.116-2.104-0.116-3.247 0-23.751 18.277-43.234 41.534-45.15l0.163-0.011h3.724c23.512 0.25 42.714 18.374 44.672 41.413l0.011 0.167 22.342 278.032h121.018v-270.584c0-24.678 20.006-44.684 44.684-44.684v0c0.001 0 0.003 0 0.004 0 24.803 0 44.95 19.931 45.3 44.651v285.512c0 41.473-33.62 75.093-75.093 75.093v0zM961.939 413.867c0.143 1.58 0.225 3.418 0.225 5.275s-0.082 3.695-0.241 5.51l0.017-0.235 47.787 372.364c0.776 3.138 1.221 6.741 1.221 10.448 0 25.021-20.283 45.304-45.304 45.304-24.549 0-44.537-19.525-45.283-43.892l-0.002-0.069-45.304-348.16h-140.257c-41.473 0-75.093-33.62-75.093-75.093v0-285.479c0.35-24.752 20.497-44.684 45.3-44.684 0.002 0 0.003 0 0.005 0v0c24.678 0 44.684 20.006 44.684 44.684v269.343h119.156l24.204-278.032c1.97-23.207 21.171-41.33 44.659-41.58h3.749c23.42 1.927 41.697 21.409 41.697 45.16 0 1.143-0.042 2.275-0.125 3.396l0.009-0.15-24.204 300.373c1.888 4.587 3.021 9.908 3.103 15.482v0.033zM722.385 633.561c1.589-0.198 3.428-0.31 5.293-0.31 25.021 0 45.304 20.283 45.304 45.304s-20.283 45.304-45.304 45.304c-1.865 0-3.704-0.113-5.511-0.332l0.217 0.021h-420.771c-1.589 0.198-3.428 0.31-5.293 0.31-25.021 0-45.304-20.283-45.304-45.304s20.283-45.304 45.304-45.304c1.865 0 3.704 0.113 5.511 0.332l-0.217-0.021h165.081v-534.962c0-25.021 20.283-45.304 45.304-45.304s45.304 20.283 45.304 45.304v0 534.962z" />
<glyph unicode="&#xe907;" glyph-name="SCLcommentLine" d="M977.216-29.696c-0.768-0.064-1.696-0.096-2.624-0.096s-1.824 0.032-2.72 0.096h0.128c-101.312 22.24-189.536 51.040-273.76 87.36l9.664-3.712c-57.376-22.496-123.808-35.552-193.28-35.552-0.928 0-1.824 0-2.752 0h0.128c-276.48 0-501.76 203.456-501.76 453.632s225.28 453.632 501.76 453.632 501.76-203.456 501.76-453.632c-0.256-89.504-28.416-172.384-76.256-240.448l0.896 1.344c16.288-93.792 45.568-166.912 66.752-202.432 5.344-6.304 8.608-14.56 8.608-23.552 0-20.16-16.32-36.48-36.448-36.544v0zM708.928 98.816l8-3.584c70.496-31.328 154.176-59.456 240.8-79.936l9.984-1.984c-24.256 42.496-54.784 120.928-71.072 221.088l-1.44 8.8 4.928 6.848c45.12 61.472 72.32 138.528 72.704 221.92v0.096c0 227.52-206.752 412.672-460.8 412.672s-460.8-185.152-460.8-412.672 206.752-412.672 460.8-412.672c0.512 0 1.12 0 1.728 0 67.36 0 131.648 13.28 190.336 37.376l-3.36-1.216z" />
<glyph unicode="&#xe908;" glyph-name="SCLimage" d="M640.704 591.36c-0.032 0-0.064 0-0.096 0-61.76 0-111.808 50.080-111.808 111.808s50.048 111.808 111.808 111.808c61.664 0 111.648-49.888 111.808-111.488v-0.032c0-0.096 0-0.192 0-0.32 0-61.728-50.016-111.776-111.712-111.808v0zM640.704 775.68c-40.224 0-72.8-32.608-72.8-72.8s32.608-72.8 72.8-72.8c40.224 0 72.8 32.608 72.8 72.8v0c-0.064 40.32-32.544 73.024-72.768 73.408h-0.032zM926.72 949.056h-829.44c-48.032-0.064-86.976-39.008-87.040-87.040v-828c0.064-48.032 39.008-86.976 87.040-87.040h829.44c24.8 0.032 47.2 10.208 63.264 26.624v0c14.72 14.944 23.776 35.456 23.776 58.112 0 0.8 0 1.632-0.032 2.432v-0.128 828c-0.064 48.032-39.008 86.976-87.040 87.040v0zM968.384 265.408l-103.328 151.872c-7.872 11.84-18.176 21.408-30.272 28.224l-0.448 0.224c-11.84 6.432-25.92 10.24-40.896 10.24-0.032 0-0.032 0-0.064 0v0c-17.92-0.224-34.496-5.696-48.352-14.944l0.32 0.192-202.656-134.976-192.416 285.088c-15.776 23.52-42.24 38.784-72.288 38.816v0c-17.984-0.16-34.656-5.632-48.544-14.944l0.32 0.192-175.424-117.568v364.128c0.288 23.616 19.296 42.656 42.88 43.008h828.128c23.552-0.352 42.56-19.36 42.912-42.88v-0.032zM279.232 586.56c0.576 0.032 1.248 0.032 1.92 0.032 14.048 0 26.4-7.264 33.536-18.208l0.096-0.16 254.368-380.096v0.928l133.12-198.048h-604.992c-23.552 0.352-42.56 19.36-42.912 42.88v410.848l201.632 134.56c6.144 4.544 13.856 7.296 22.208 7.296 0.352 0 0.736 0 1.088-0.032h-0.064zM569.024 270.528l201.824 133.12c6.144 4.544 13.856 7.296 22.208 7.296 0.32 0 0.672 0 0.992 0h-0.064c0.544 0.032 1.184 0.032 1.824 0.032 14.048 0 26.4-7.264 33.504-18.208l0.096-0.16 139.968-207.872v-150.72c-0.352-23.552-19.36-42.56-42.88-42.912h-170.112l-187.296 277.6z" />
<glyph unicode="&#xe909;" glyph-name="SCLlikeLine" d="M942.080 421.472c-6.592 19.808-18.112 36.512-33.12 49.216l-0.16 0.128-1.344 1.12 7.264 9.024 6.848 8 1.12 3.776c0.608 1.952 1.344 3.904 1.952 5.824 1.952 5.056 3.712 11.104 4.896 17.344l0.096 0.704v2.144c1.76 8.192 2.784 17.6 2.784 27.264 0 2.752-0.096 5.504-0.256 8.224l0.032-0.384c-1.824 13.312-5.408 25.344-10.56 36.544l0.32-0.8c-4.48 11.104-11.488 20.384-20.352 27.456l-0.128 0.096-3.168 2.656c-4.8 4.544-10.4 8.352-16.512 11.2l-0.384 0.16c-13.76 6.752-29.76 11.712-46.56 14.048l-0.832 0.096h-226.816v2.656l1.216 10.24c3.36 18.112 5.28 38.944 5.28 60.224 0 12.448-0.672 24.736-1.952 36.832l0.128-1.504c-5.344 36.864-15.552 70.144-30.112 100.96l0.928-2.144c-10.848 18.784-23.808 34.88-38.88 48.704l-0.16 0.128c-11.776 8.928-25.312 16.48-39.84 22.048l-1.12 0.384c-10.592 3.264-22.752 5.152-35.36 5.152-7.392 0-14.656-0.64-21.696-1.888l0.736 0.096h-2.048c-11.2-1.504-21.184-5.888-29.408-12.384l0.128 0.096c-5.6-4.416-9.152-11.168-9.152-18.784 0-3.424 0.736-6.688 2.016-9.632l-0.064 0.16v-1.344c0-1.536 0-4.192 0-7.072v-9.024c0-22.848 0-44.736 0-64.608v-9.408c0-6.976 0-21.088 0-31.552v-13.504c-0.608-13.344-5.152-25.536-12.512-35.52l0.128 0.192c-3.072-5.216-9.12-14.528-14.528-22.944s-9.312-14.528-10.944-17.312c-8-13.12-15.968-25.504-23.872-37.984-9.632-15.040-19.552-30.72-29.376-47.008-5.536-9.216-10.24-18.624-15.36-27.744l-5.728-11.456c-0.928-1.536-1.856-3.168-2.752-5.024-8.224 5.952-18.464 9.568-29.568 9.728h-133.152c-28.864 0-52.416-27.84-52.416-62.144v-463.872c0-34.304 23.456-62.144 52.416-62.144h133.12c29.504 0 55.392 27.456 56.928 59.296h422.592c20.128 1.12 38.464 8.096 53.504 19.232l-0.256-0.192c43.008 39.104 56.224 80.384 39.52 122.88 23.104 10.016 41.92 26.208 54.912 46.496l0.288 0.48c16.896 27.84 18.752 54.688 5.536 79.776-2.24 4.288-4.608 8.384-7.072 12.384 12.576 6.336 23.264 14.592 32.16 24.48l0.096 0.096c15.392 16.064 24.832 37.92 24.832 61.952 0 9.888-1.6 19.392-4.544 28.256l0.192-0.64zM279.36 29.184c0-0.256 0.032-0.544 0.032-0.864 0-9.92-6.784-18.24-15.936-20.608l-0.16-0.032h-134.848c-6.24 4.032-10.304 10.944-10.304 18.816 0 0.576 0.032 1.184 0.064 1.76v-0.064 464.576c0 12.704 6.848 21.184 11.456 21.184h133.12c9.344-2.56 16.064-10.976 16.064-20.96 0-0.096 0-0.16 0-0.256v0zM890.176 358.592c-9.408-9.44-20.768-16.896-33.44-21.696l-0.64-0.224-25.504-11.584 11.872-19.552 6.144-10.24c4.192-6.752 8.192-13.12 11.584-19.552 4.512-8.608 7.488-19.968-4.288-39.52-10.24-17.088-27.552-26.816-50.080-36.16l-5.216-2.368c-3.008-1.6-5.536-3.712-7.552-6.304l-0.032-0.064-10.24-11.264 7.68-12.8c19.648-32.864 13.216-59.392-21.696-91.232-7.552-4.608-16.48-7.744-26.016-8.768l-0.288-0.032h-422.080v141.12q0 143.36 0 286.72c1.408 12.416 5.024 23.712 10.496 33.888l-0.256-0.512 0.704 1.216 6.656 12.992c4.8 9.024 9.312 17.6 14.336 25.92 9.536 15.872 19.264 30.72 28.768 45.984 8.096 12.608 16.192 25.28 24.48 38.912 1.632 2.88 5.824 9.216 10.24 16.192 5.728 8.896 12.096 18.848 15.456 24.48 11.232 16.192 17.92 36.256 17.92 57.856 0 0.032 0 0.064 0 0.096v0 11.584c0 10.24 0 24.768 0 31.552v9.216c0 20.48 0 42.176 0 65.024v17.312h1.44c4.96 0.96 10.656 1.536 16.512 1.536 7.712 0 15.168-0.96 22.304-2.784l-0.64 0.128c11.744-4.416 21.888-10.048 31.040-16.928l-0.32 0.224c11.008-10.624 20.416-22.752 27.968-36.064l0.416-0.8c10.912-24.128 19.264-52.128 23.744-81.44l0.224-1.792c0.928-9.024 1.472-19.52 1.472-30.112 0-19.040-1.728-37.664-5.056-55.744l0.288 1.888-1.728-12.096c-0.704-6.464-1.44-12.896-2.048-19.36-0.224-1.28-0.352-2.72-0.352-4.224 0-6.624 2.4-12.672 6.4-17.312l-0.032 0.032c4.608-4.64 11.008-7.552 18.112-7.552 0.608 0 1.248 0.032 1.856 0.064h240.128c12.96-2.272 24.544-6.112 35.264-11.392l-0.768 0.352c2.24-1.376 4.192-2.88 5.952-4.608v0l4.512-3.776c3.744-2.784 6.688-6.432 8.544-10.688l0.064-0.16c3.232-6.848 5.824-14.848 7.296-23.168l0.096-0.576c0.032-1.056 0.064-2.272 0.064-3.52 0-7.424-0.8-14.656-2.336-21.6l0.128 0.672v-2.24c-0.928-4.416-2.048-8.224-3.456-11.872l0.192 0.512-1.12-3.264-1.952-2.368-13.12-16.192-3.264-3.68-16.992-18.336 20.48-17.728 11.456-10.24c9.696-7.936 17.088-18.336 21.248-30.24l0.16-0.48c1.536-4.544 2.432-9.792 2.432-15.264 0-14.144-5.952-26.912-15.488-35.904l-0.032-0.032z" />
<glyph unicode="&#xe90a;" glyph-name="menu" d="M93.6 714h849v-91.5h-849v91.5zM93.6 484.6h849v-91.5h-849v91.5zM93.6 255.2h849v-91.5h-849v91.5z" />
<glyph unicode="&#xe90b;" glyph-name="SCLlocation" d="M512-53.76c-8.512 0-16.256 3.392-21.92 8.928v0c-59.2 57.024-354.208 355.136-354.208 618.592 0 207.68 168.384 376.064 376.064 376.064s376.064-168.384 376.064-376.064v0c0-268.608-295.104-562.592-354.304-618.816-5.632-5.376-13.28-8.704-21.696-8.704v0zM512 908.8c-184.96-0.224-334.816-150.112-335.040-335.040v-0.032c0-240.64 279.136-527.552 335.168-582.752 69.44 67.072 334.944 339.456 334.944 582.752-0.224 184.96-150.112 334.816-335.040 335.040h-0.032zM512 425.472c-91.616 0-165.888 74.272-165.888 165.888s74.272 165.888 165.888 165.888c91.616 0 165.888-74.272 165.888-165.888v0c-0.064-91.584-74.304-165.824-165.888-165.888v0zM512 716.192c-68.992 0-124.928-55.936-124.928-124.928s55.936-124.928 124.928-124.928c68.992 0 124.928 55.936 124.928 124.928 0 0.032 0 0.064 0 0.096v0c-0.128 68.928-56 124.768-124.928 124.832v0z" />
<glyph unicode="&#xe90c;" glyph-name="SCLproduct" d="M962.56 953.536h-901.12c-28.288 0-51.2-22.912-51.2-51.2v0-217.696c0.064-23.84 16.384-43.84 38.464-49.472l0.352-0.064v-627.392c0-36.256 29.376-65.632 65.632-65.632v0h794.624c36.256 0 65.632 29.376 65.632 65.632v0 627.392c22.432 5.728 38.752 25.728 38.816 49.568v217.696c0 28.288-22.912 51.2-51.2 51.2v0zM51.2 902.336c0 5.664 4.576 10.24 10.24 10.24v0h901.12c5.664 0 10.24-4.576 10.24-10.24v0-217.696c0-5.664-4.576-10.24-10.24-10.24v0h-901.12c-5.664 0-10.24 4.576-10.24 10.24v0zM909.312-16.576h-794.624c0 0 0 0 0 0-13.472 0-24.448 10.816-24.672 24.256v625.792h843.968v-625.76c-0.224-13.44-11.2-24.256-24.672-24.256 0 0 0 0 0 0v0zM634.88 500.32h-245.76c-11.296 0-20.48-9.184-20.48-20.48s9.184-20.48 20.48-20.48v0h245.76c11.296 0 20.48 9.184 20.48 20.48s-9.184 20.48-20.48 20.48v0z" />
<glyph unicode="&#xe90d;" glyph-name="CKgst" d="M360.448 582.144c-15.36 7.168-38.912 12.288-62.464 12.288-79.872 0-135.168-53.248-136.192-130.048 0-37.888 13.312-71.68 35.84-94.208 23.552-22.528 54.272-33.792 93.184-33.792 30.72 0 56.32 7.168 72.704 13.312l11.264 4.096v134.144h-104.448v-57.344h44.032v-35.84l-7.168-1.024c-4.096 0-8.192-1.024-13.312-1.024-41.984 0-67.584 26.624-67.584 71.68 0 44.032 26.624 70.656 70.656 70.656 20.48 0 32.768-4.096 41.984-8.192l17.408-8.192 16.384 55.296-12.288 8.192zM544.768 495.104v0c-27.648 10.24-32.768 17.408-32.768 26.624s9.216 15.36 24.576 15.36c15.36 0 26.624-4.096 33.792-8.192l17.408-10.24 18.432 55.296-12.288 8.192c-8.192 5.12-27.648 13.312-57.344 13.312-51.2 0-88.064-31.744-88.064-76.8 0-35.84 22.528-61.44 68.608-77.824 25.6-10.24 30.72-17.408 30.72-27.648 0-6.144-3.072-20.48-28.672-20.48-14.336 0-29.696 4.096-41.984 11.264l-19.456 11.264-17.408-57.344 10.24-7.168c15.36-10.24 40.96-16.384 65.536-16.384 64.512 0 94.208 39.936 94.208 79.872 1.024 49.152-34.816 69.632-65.536 80.896zM728.064 338.432h62.464v194.56h67.584v58.368h-196.608v-58.368h66.56zM878.592 858.624h-738.304c-67.584 0-122.88-55.296-122.88-122.88v-542.72c0-67.584 55.296-122.88 122.88-122.88h738.304c67.584 0 122.88 55.296 122.88 122.88v542.72c0 67.584-55.296 122.88-122.88 122.88zM919.552 700.928v0-507.904c0-22.528-18.432-40.96-40.96-40.96h-738.304c-22.528 0-40.96 18.432-40.96 40.96v542.72c0 22.528 18.432 40.96 40.96 40.96h738.304c22.528 0 40.96-18.432 40.96-40.96v-34.816z" />
<glyph unicode="&#xe90e;" glyph-name="heartFill" d="M512 14.222c-36.818 0.115-72.658 11.862-102.4 33.564-137.102 98.987-366.933 300.373-366.933 530.773 0 188.871 121.742 280.462 241.778 288.427 89.298 6.394 175.494-34.118 227.556-106.951 56.602 78.525 152.288 118.907 248.036 104.676 101.831-14.222 221.298-97.849 221.298-284.444 0-230.4-227.556-431.787-366.933-530.773-29.533-22.311-65.392-34.662-102.4-35.271z" />
<glyph unicode="&#xe90f;" glyph-name="SCLReset" d="M267.872 318.272c-1.44 4.064-5.216 6.912-9.696 6.912-3.072 0-5.856-1.344-7.712-3.52v0l-99.936-115.2c-50.752 69.824-81.184 157.248-81.184 251.808 0 238.080 192.992 431.104 431.072 431.104h1.344c11.296 0 20.48 9.184 20.48 20.48s-9.184 20.48-20.48 20.48v0h-1.44c-260.704-0.16-471.968-211.552-471.968-472.256 0-105.632 34.688-203.168 93.28-281.824l-0.896 1.248c0.768-0.928 1.568-1.76 2.432-2.528l0.032-0.032-78.848-90.944c-1.568-1.792-2.528-4.16-2.528-6.72 0-4.992 3.584-9.152 8.288-10.048h0.064l308.832-59.488c0.576-0.128 1.216-0.192 1.888-0.192 5.664 0 10.24 4.576 10.24 10.24 0 1.216-0.192 2.368-0.576 3.424l0.032-0.064zM898.976 727.744c-0.736 0.928-1.504 1.792-2.336 2.56v0l78.848 90.816c1.568 1.792 2.528 4.16 2.528 6.72 0 4.992-3.584 9.152-8.288 10.048h-0.064l-308.928 59.712c-0.576 0.128-1.216 0.192-1.888 0.192-5.664 0-10.24-4.576-10.24-10.24 0-1.216 0.192-2.368 0.576-3.424l-0.032 0.064 102.4-296.96c1.44-4.064 5.216-6.912 9.664-6.912 3.072 0 5.856 1.344 7.712 3.52v0l99.936 115.296c50.784-69.856 81.248-157.312 81.248-251.904 0-238.080-193.024-431.104-431.104-431.104-0.032 0-0.032 0-0.064 0h-1.216c-11.296 0-20.48-9.184-20.48-20.48s9.184-20.48 20.48-20.48v0h1.44c260.704 0.192 471.968 211.552 471.968 472.256 0 105.504-34.592 202.912-93.056 281.536l0.896-1.248z" />
<glyph unicode="&#xe910;" glyph-name="SCLRotate" d="M901.12 438.070c-26.735 0-48.407-21.673-48.407-48.407v0c0-188.17-152.542-340.713-340.713-340.713s-340.713 152.542-340.713 340.713c0 188.17 152.542 340.713 340.713 340.713v0-74.473c0.252-13.65 7.574-25.536 18.449-32.176l0.169-0.096c5.008-2.74 10.972-4.351 17.311-4.351 0.241 0 0.482 0.002 0.722 0.007l-0.036-0.001c6.852 0.023 13.268 1.863 18.801 5.062l-0.182-0.097 168.184 92.47c22.060 13.788 36.517 37.943 36.517 65.474s-14.457 51.685-36.194 65.286l-0.323 0.188-167.564 91.229c-5.355 3.079-11.775 4.895-18.618 4.895s-13.263-1.816-18.803-4.992l0.185 0.098c-11.044-6.736-18.366-18.621-18.618-32.235l-0.001-0.036v-78.817c-241.982 0-438.148-196.165-438.148-438.148s196.165-438.148 438.148-438.148c241.982 0 438.148 196.165 438.148 438.148v0c0 0.001 0 0.003 0 0.004 0 26.735-21.673 48.407-48.407 48.407-0.218 0-0.436-0.001-0.654-0.004h0.033z" />
<glyph unicode="&#xe911;" glyph-name="SCLshareLine" d="M592.704 57.536c-16.96 0-30.72 13.76-30.72 30.72v0 194.56c-191.904 17.92-369.152-60.832-465.312-208.192-5.632-7.84-14.752-12.864-25.024-12.864-16.96 0-30.72 13.76-30.72 30.72 0 0.416 0 0.832 0.032 1.28v-0.064c20.48 281.088 252.096 511.072 521.216 522.24v192.096c0.256 16.768 13.888 30.304 30.72 30.304 8.384 0 15.968-3.36 21.504-8.8v0l359.744-360.128c5.408-5.536 8.736-13.088 8.736-21.44s-3.328-15.936-8.736-21.472l-359.712-360.032c-5.536-5.504-13.184-8.896-21.632-8.896-0.032 0-0.064 0-0.096 0v0zM508.512 326.336c27.072-0.032 53.696-1.792 79.808-5.152l-3.104 0.32c10.144-1.312 17.92-9.92 17.92-20.32 0-0.064 0-0.128 0-0.16v0-187.488l334.528 334.432-334.432 334.432v-186.464c0-11.296-9.184-20.48-20.48-20.48v0c-243.904 0-458.848-196.192-496.448-444.928 97.984 124.608 251.584 195.776 422.208 195.776zM945.152 440.512v0z" />
<glyph unicode="&#xe912;" glyph-name="SCLvideo" d="M942.080 100.352h-860.16c-39.584 0-71.68 32.096-71.68 71.68v0 551.936c0 39.584 32.096 71.68 71.68 71.68v0h860.16c39.584 0 71.68-32.096 71.68-71.68v0-551.936c0-39.584-32.096-71.68-71.68-71.68v0zM81.92 754.688c-16.96 0-30.72-13.76-30.72-30.72v0-551.936c0-16.96 13.76-30.72 30.72-30.72v0h860.16c16.96 0 30.72 13.76 30.72 30.72v0 551.936c0 16.96-13.76 30.72-30.72 30.72v0zM391.168 255.392c-28.288 0-51.2 22.912-51.2 51.2v0 282.816c0 28.288 22.912 51.2 51.2 51.2 9.44 0 18.24-2.56 25.856-6.976l-0.256 0.128 244.832-141.408c15.424-9.024 25.6-25.504 25.6-44.352s-10.176-35.328-25.344-44.224l-0.256-0.128-244.832-141.408c-7.328-4.32-16.16-6.848-25.6-6.848v0zM391.168 599.648c-1.888-0.032-3.648-0.544-5.152-1.472l0.032 0.032c-3.072-1.792-5.12-5.088-5.12-8.864 0 0 0-0.032 0-0.032v0-282.72c0 0 0-0.032 0-0.032 0-5.664 4.576-10.24 10.24-10.24 1.888 0 3.648 0.512 5.184 1.408l-0.064-0.032 244.832 141.408c3.072 1.792 5.088 5.088 5.088 8.864s-2.016 7.040-5.056 8.832l-0.064 0.032-244.832 141.408c-1.44 0.864-3.168 1.408-4.992 1.44v0z" />
<glyph unicode="&#xe913;" glyph-name="SCLZoomIn" d="M1000.256-11.584l-334.656 353.792c54.464 63.936 87.616 147.488 87.616 238.784 0 203.936-165.312 369.248-369.248 369.248s-369.248-165.312-369.248-369.248c0-203.936 165.312-369.248 369.248-369.248 91.008 0 174.304 32.928 238.656 87.488l-0.544-0.448 333.504-352.576c5.632-6.208 13.76-10.112 22.784-10.112 16.96 0 30.72 13.76 30.72 30.72 0 8.416-3.36 16.032-8.832 21.568v0zM56.32 580.416c0 180.96 146.72 327.68 327.68 327.68s327.68-146.72 327.68-327.68c0-180.96-146.72-327.68-327.68-327.68v0c-180.96 0-327.68 146.72-327.68 327.68v0zM592.8 603.552h-188.224v188.224c0 11.296-9.184 20.48-20.48 20.48s-20.48-9.184-20.48-20.48v0-188.224h-188.224c-11.296 0-20.48-9.184-20.48-20.48s9.184-20.48 20.48-20.48v0h188.224v-188.224c0-11.296 9.184-20.48 20.48-20.48s20.48 9.184 20.48 20.48v0 188.224h188.224c11.296 0 20.48 9.184 20.48 20.48s-9.184 20.48-20.48 20.48v0z" />
<glyph unicode="&#xe914;" glyph-name="SCLZoomOut" d="M592.8 603.552h-417.376c-11.296 0-20.48-9.184-20.48-20.48s9.184-20.48 20.48-20.48v0h417.376c11.296 0 20.48 9.184 20.48 20.48s-9.184 20.48-20.48 20.48v0zM1000.256-11.584l-334.656 353.792c54.464 63.936 87.616 147.488 87.616 238.784 0 203.936-165.312 369.248-369.248 369.248s-369.248-165.312-369.248-369.248c0-203.936 165.312-369.248 369.248-369.248 91.008 0 174.304 32.928 238.656 87.488l-0.544-0.448 333.504-352.576c5.632-6.208 13.76-10.112 22.784-10.112 16.96 0 30.72 13.76 30.72 30.72 0 8.416-3.36 16.032-8.832 21.568v0zM56.32 580.416c0 180.96 146.72 327.68 327.68 327.68s327.68-146.72 327.68-327.68c0-180.96-146.72-327.68-327.68-327.68v0c-180.96 0-327.68 146.72-327.68 327.68v0z" />
<glyph unicode="&#xe915;" glyph-name="iosAttachmentEnquiry" d="M1012.736 255.488c-4.096 5.12-8.192 7.168-14.336 8.192s-11.264-1.024-15.36-5.12l-89.088-71.68-128-102.4c-11.264-9.216-24.576-15.36-37.888-19.456s-27.648-5.12-40.96-3.072c-13.312 1.024-26.624 5.12-38.912 12.288-12.288 6.144-23.552 15.36-32.768 27.648-9.216 11.264-15.36 23.552-19.456 37.888-4.096 13.312-5.12 27.648-3.072 40.96 1.024 14.336 5.12 26.624 12.288 38.912s15.36 23.552 26.624 32.768l210.944 167.936 7.168 5.12c13.312 10.24 27.648 15.36 44.032 14.336 1.024 0 2.048 0 3.072 0 17.408-2.048 31.744-10.24 43.008-23.552s15.36-29.696 13.312-47.104c-2.048-17.408-9.216-31.744-23.552-43.008l-87.040-69.632-130.048-104.448c-5.12-4.096-10.24-5.12-15.36-5.12-6.144 1.024-10.24 3.072-14.336 8.192-4.096 4.096-5.12 10.24-4.096 15.36 1.024 6.144 3.072 11.264 8.192 14.336l156.672 125.952 43.008 34.816c5.12 4.096 7.168 8.192 8.192 14.336 0 1.024 0 1.024 0 2.048v2.048c0 4.096-2.048 8.192-5.12 11.264-4.096 5.12-8.192 7.168-14.336 8.192s-11.264-1.024-15.36-5.12l-17.408-12.288-184.32-147.456c-7.168-5.12-12.288-12.288-16.384-19.456s-6.144-15.36-7.168-23.552c-1.024-8.192 0-16.384 2.048-24.576s6.144-15.36 11.264-22.528c5.12-6.144 12.288-12.288 19.456-16.384s15.36-6.144 23.552-7.168c8.192-1.024 16.384 0 24.576 2.048s16.384 6.144 22.528 12.288l217.088 174.080c11.264 9.216 20.48 20.48 26.624 32.768s10.24 24.576 12.288 38.912c2.048 14.336 0 27.648-3.072 40.96-4.096 13.312-10.24 25.6-19.456 37.888-9.216 11.264-19.456 20.48-32.768 26.624-12.288 6.144-25.6 10.24-38.912 12.288v0c-2.048 0-5.12 0-7.168 0v198.656c0 6.144-2.048 12.288-7.168 17.408l-231.424 250.88c-5.12 5.12-11.264 8.192-18.432 8.192h-487.424c-32.768 0-58.368-26.624-58.368-60.416v-893.952c0-32.768 26.624-60.416 58.368-60.416h687.104c32.768 0 58.368 26.624 58.368 60.416v129.024l115.712 93.184c5.12 4.096 7.168 8.192 8.192 14.336 0 6.144-1.024 11.264-5.12 15.36zM824.32 690.688h-167.936c-9.216 0-17.408 8.192-17.408 17.408v182.272l185.344-199.68zM842.752 3.584c0-5.12-3.072-9.216-7.168-9.216h-687.104c-4.096 0-7.168 4.096-7.168 9.216v893.952c0 5.12 3.072 9.216 7.168 9.216h440.32v-198.656c0-37.888 30.72-68.608 68.608-68.608h185.344v-167.936c-7.168-3.072-13.312-7.168-19.456-12.288l-217.088-174.080c-16.384-13.312-28.672-28.672-37.888-46.080s-15.36-34.816-17.408-54.272c-2.048-19.456-1.024-38.912 5.12-57.344 5.12-19.456 14.336-36.864 27.648-53.248 12.288-15.36 27.648-28.672 46.080-37.888 17.408-9.216 34.816-15.36 54.272-17.408s38.912-1.024 57.344 5.12c19.456 5.12 36.864 14.336 53.248 27.648l50.176 39.936v-88.064zM244.736 647.68h246.784c14.336 0 25.6 11.264 25.6 25.6s-11.264 25.6-25.6 25.6h-246.784c-14.336 0-25.6-11.264-25.6-25.6s11.264-25.6 25.6-25.6zM244.736 470.528h452.608c14.336 0 25.6 11.264 25.6 25.6s-11.264 25.6-25.6 25.6h-452.608c-14.336 0-25.6-11.264-25.6-25.6s11.264-25.6 25.6-25.6zM244.736 293.376h342.016c14.336 0 25.6 11.264 25.6 25.6s-11.264 25.6-25.6 25.6h-342.016c-14.336 0-25.6-11.264-25.6-25.6s11.264-25.6 25.6-25.6zM404.48 168.448h-165.888c-14.336 0-25.6-11.264-25.6-25.6s11.264-25.6 25.6-25.6h165.888c14.336 0 25.6 11.264 25.6 25.6s-11.264 25.6-25.6 25.6z" />
<glyph unicode="&#xe916;" glyph-name="iosAttachmentProducts" d="M1010.688 280.064c-4.096 5.12-8.192 7.168-14.336 8.192s-11.264-1.024-15.36-5.12l-217.088-174.080c-11.264-9.216-24.576-15.36-37.888-19.456s-27.648-5.12-40.96-3.072c-13.312 1.024-26.624 5.12-38.912 12.288-12.288 6.144-23.552 15.36-32.768 27.648-9.216 11.264-15.36 23.552-19.456 37.888-4.096 13.312-5.12 27.648-3.072 40.96 1.024 14.336 5.12 26.624 12.288 38.912s15.36 23.552 26.624 32.768l217.088 174.080c3.072 2.048 6.144 4.096 8.192 6.144 11.264 7.168 24.576 9.216 37.888 8.192 3.072 0 6.144-1.024 9.216-2.048 13.312-3.072 24.576-10.24 33.792-21.504 11.264-13.312 15.36-29.696 13.312-47.104s-9.216-31.744-23.552-43.008l-24.576-19.456-47.104-37.888-143.36-118.784c-5.12-4.096-10.24-5.12-15.36-5.12-6.144 1.024-10.24 3.072-14.336 8.192-4.096 4.096-5.12 10.24-4.096 15.36 1.024 6.144 3.072 11.264 8.192 14.336l173.056 138.24 27.648 22.528c5.12 4.096 7.168 8.192 8.192 14.336s-1.024 11.264-5.12 15.36-8.192 7.168-14.336 8.192c-6.144 1.024-11.264-1.024-15.36-5.12l-1.024-1.024-201.728-157.696c-7.168-5.12-12.288-12.288-16.384-19.456s-6.144-15.36-7.168-23.552c-1.024-8.192 0-16.384 2.048-24.576s6.144-15.36 11.264-22.528c5.12-6.144 12.288-12.288 19.456-16.384s15.36-6.144 23.552-7.168c8.192-1.024 16.384 0 24.576 2.048s16.384 6.144 22.528 12.288l217.088 174.080c11.264 9.216 20.48 20.48 26.624 32.768s10.24 24.576 12.288 38.912 0 27.648-3.072 40.96c-4.096 13.312-10.24 25.6-19.456 37.888-9.216 11.264-19.456 20.48-32.768 26.624-11.264 6.144-22.528 9.216-34.816 11.264v107.52c21.504 7.168 35.84 26.624 35.84 49.152v199.68c0 28.672-23.552 51.2-51.2 51.2h-826.368c-28.672 0-51.2-23.552-51.2-51.2v-199.68c0-22.528 14.336-41.984 35.84-49.152v-571.392c0-35.84 28.672-64.512 64.512-64.512h729.088c35.84 0 64.512 28.672 64.512 64.512v123.904l104.448 83.968c5.12 4.096 7.168 8.192 8.192 14.336 0 5.12-1.024 10.24-5.12 15.36zM60.416 657.92c-3.072 0-5.12 2.048-5.12 5.12v199.68c0 3.072 2.048 5.12 5.12 5.12h826.368c3.072 0 5.12-2.048 5.12-5.12v-199.68c0-3.072-2.048-5.12-5.12-5.12h-826.368zM856.064 42.496c0-9.216-8.192-17.408-17.408-17.408h-729.088c-9.216 0-17.408 8.192-17.408 17.408v568.32h763.904v-109.568c-13.312-4.096-24.576-10.24-35.84-18.432l-217.088-174.080c-16.384-13.312-28.672-28.672-37.888-46.080s-15.36-34.816-17.408-54.272c-2.048-19.456-1.024-38.912 5.12-57.344 5.12-19.456 14.336-36.864 27.648-53.248 12.288-15.36 27.648-28.672 46.080-37.888 17.408-9.216 34.816-15.36 54.272-17.408s38.912-1.024 57.344 5.12c19.456 5.12 36.864 14.336 53.248 27.648l65.536 52.224v-84.992zM610.304 474.624c0 13.312-10.24 23.552-23.552 23.552h-225.28c-13.312 0-23.552-10.24-23.552-23.552s10.24-23.552 23.552-23.552h225.28c12.288 0 23.552 11.264 23.552 23.552z" />
<glyph unicode="&#xe917;" glyph-name="iosCrown" d="M780.8 169.082h-576v-79.238h604.8v79.238zM937.6 663.528c-44.8 0-80-31.695-83.2-72.899 0-3.17 0-6.339 0-9.509 0-6.339 0-15.848 3.2-22.187 3.2-9.509 6.4-19.017 12.8-25.356l-60.8-28.526-25.6-12.678h-3.2l-22.4-9.509-76.8-38.034-54.4 79.238-16 22.187-6.4-3.17-19.2 25.356-57.6 82.408c9.6 3.17 19.2 6.339 28.8 12.678s16 12.678 22.4 22.187c9.6 12.678 16 31.695 16 47.543 0 47.543-38.4 82.408-83.2 82.408-48 0-83.2-38.034-83.2-82.408 0-19.017 6.4-34.865 16-47.543 6.4-9.509 12.8-15.848 22.4-22.187s19.2-9.509 28.8-12.678l-57.6-82.408-25.6-25.356-3.2-6.339-12.8-19.017-57.6-79.238-76.8 34.865-25.6 12.678h-3.2l-89.6 44.373c6.4 6.339 12.8 15.848 16 25.356s6.4 19.017 6.4 28.526c0 47.543-38.4 82.408-83.2 82.408s-83.2-38.034-83.2-82.408c0-41.204 32-76.069 73.6-82.408 3.2 0 6.4 0 9.6 0 6.4 0 12.8 0 19.2 3.17 9.6 3.17 19.2 6.339 28.8 12.678l96-263.070 9.6-28.526h547.2l9.6 28.526 92.8 256.731c6.4-6.339 16-9.509 25.6-15.848 6.4-3.17 16-3.17 25.6-3.17 3.2 0 3.2 0 6.4 0 44.8 3.17 80 41.204 80 82.408-3.2 50.712-41.6 88.747-86.4 88.747z" />
<glyph unicode="&#xe918;" glyph-name="iosProductImages" d="M342.016 626.176c56.32 0 103.424 46.080 103.424 103.424s-46.080 102.4-103.424 102.4-102.4-46.080-102.4-103.424 46.080-102.4 102.4-102.4zM342.016 786.944c32.768 0 58.368-26.624 58.368-58.368s-26.624-58.368-58.368-58.368c-32.768 0-58.368 26.624-58.368 58.368s26.624 58.368 58.368 58.368zM983.040 422.4h-83.968v445.44c0 45.056-36.864 80.896-80.896 80.896h-726.016c-45.056 0-81.92-35.84-81.92-80.896v-724.992c-1.024-21.504 7.168-40.96 22.528-56.32s36.864-24.576 59.392-24.576h473.088v-71.68c0-24.576 20.48-45.056 45.056-45.056h349.184c24.576 0 45.056 20.48 45.056 45.056v266.24c10.24 7.168 17.408 19.456 17.408 31.744v96.256c0 20.48-17.408 37.888-38.912 37.888zM60.416 867.84c0 17.408 15.36 32.768 32.768 32.768h724.992c17.408 0 32.768-15.36 32.768-32.768v-309.248l-145.408 98.304c-14.336 9.216-29.696 13.312-45.056 13.312-27.648 0-52.224-13.312-67.584-35.84l-165.888-245.76-173.056 115.712c-14.336 9.216-29.696 13.312-45.056 13.312-13.312 0-26.624-3.072-38.912-9.216-11.264-6.144-21.504-15.36-28.672-26.624l-80.896-119.808v505.856zM92.16 110.080c-17.408 0-32.768 15.36-32.768 32.768v130.048l121.856 181.248c5.12 8.192 15.36 13.312 26.624 13.312 7.168 0 13.312-2.048 17.408-5.12l173.056-114.688-159.744-237.568h-146.432zM297.984 110.080l101.376 151.552v-1.024l232.448 347.136c5.12 8.192 15.36 13.312 26.624 13.312 7.168 0 13.312-2.048 17.408-5.12l174.080-116.736v-76.8h-264.192c-21.504 0-38.912-17.408-38.912-38.912v-96.256c0-13.312 6.144-24.576 17.408-31.744v-145.408h-266.24zM954.368-4.608l-338.944-1.024v253.952h338.944v-252.928zM971.776 299.52h-372.736v71.68h372.736v-71.68zM850.944 220.672c-3.072 2.048-7.168 3.072-11.264 3.072h-108.544c-14.336 0-25.6-11.264-25.6-25.6s11.264-25.6 25.6-25.6h108.544c4.096 0 8.192 1.024 11.264 3.072 8.192 4.096 14.336 12.288 14.336 22.528s-6.144 17.408-14.336 22.528z" />
</font>
</defs>
</svg>
